<svg width="151" height="144" viewBox="0 0 151 144" fill="none" xmlns="http://www.w3.org/2000/svg">
<circle cx="70.008" cy="70.008" r="70.008" fill="#C4C4C4" fill-opacity="0.4"/>
<path d="M3.83447 75.7847L53.0638 67.7737V114.382L6.28954 111.933L3.83447 75.7847Z" fill="#6C63FF"/>
<path opacity="0.05" d="M3.83447 75.7848L53.0638 67.7738V114.382L6.28954 111.933L3.83447 75.7848Z" fill="black"/>
<path d="M53.0679 67.7738L112.105 72.1917L108.838 112.752L53.0679 114.382V67.7738Z" fill="#6C63FF"/>
<path opacity="0.1" d="M53.0679 67.7738L112.105 72.1917L108.838 112.752L53.0679 114.382V67.7738Z" fill="black"/>
<path d="M86.2853 67.5574C86.1877 68.8551 85.8355 70.1209 85.2488 71.2825C84.662 72.4441 83.8522 73.4787 82.8656 74.3273C81.879 75.1759 80.7349 75.8219 79.4986 76.2284C78.2623 76.6349 76.9581 76.7938 75.6604 76.6963C74.3627 76.5987 73.0969 76.2465 71.9353 75.6597C70.7737 75.073 69.7391 74.2631 68.8904 73.2765C68.0418 72.2899 67.3958 71.1458 66.9894 69.9095C66.5829 68.6733 66.4239 67.369 66.5215 66.0713L76.4034 66.8144L86.2853 67.5574Z" fill="#CACACA"/>
<rect x="5.75397" y="65.7428" width="54.1972" height="67.1571" rx="8" transform="rotate(-25 5.75397 65.7428)" fill="#9188E3"/>
<path d="M51.614 60.4717L38.2662 66.6959C37.983 66.8279 37.6589 66.8421 37.3652 66.7352C37.0716 66.6283 36.8324 66.4092 36.7003 66.126C36.5683 65.8428 36.5541 65.5187 36.661 65.225C36.7679 64.9314 36.987 64.6922 37.2703 64.5601L50.6181 58.336C50.9013 58.2039 51.2254 58.1897 51.519 58.2966C51.8127 58.4035 52.0518 58.6227 52.1839 58.9059C52.316 59.1891 52.3301 59.5132 52.2232 59.8068C52.1164 60.1004 51.8972 60.3396 51.614 60.4717V60.4717Z" fill="#3F3D56"/>
<path d="M54.2281 66.0778L40.8803 72.302C40.5971 72.434 40.273 72.4482 39.9794 72.3413C39.6857 72.2344 39.4466 72.0153 39.3145 71.7321C39.1824 71.4488 39.1683 71.1248 39.2752 70.8311C39.382 70.5375 39.6012 70.2983 39.8844 70.1662L53.2322 63.942C53.5154 63.81 53.8395 63.7958 54.1332 63.9027C54.4268 64.0096 54.666 64.2287 54.798 64.512C54.9301 64.7952 54.9443 65.1193 54.8374 65.4129C54.7305 65.7065 54.5113 65.9457 54.2281 66.0778V66.0778Z" fill="#3F3D56"/>
<path d="M35.5202 78.6876L25.7656 83.2362C25.4469 83.3844 25.0824 83.4002 24.7522 83.2799C24.4219 83.1597 24.1529 82.9134 24.004 82.5951L18.6363 71.084C18.4881 70.7653 18.4723 70.4008 18.5926 70.0706C18.7128 69.7403 18.9591 69.4712 19.2774 69.3224L29.032 64.7737C29.3507 64.6255 29.7151 64.6098 30.0454 64.73C30.3756 64.8502 30.6447 65.0965 30.7936 65.4149L36.1613 76.926C36.3095 77.2447 36.3252 77.6091 36.205 77.9394C36.0848 78.2697 35.8385 78.5388 35.5202 78.6876Z" fill="#6C63FF"/>
<path d="M59.4884 77.6L29.3223 91.6667C29.0391 91.7988 28.715 91.8129 28.4214 91.706C28.1277 91.5992 27.8886 91.38 27.7565 91.0968C27.6244 90.8136 27.6103 90.4895 27.7172 90.1959C27.8241 89.9022 28.0432 89.663 28.3264 89.531L58.4925 75.4643C58.6327 75.3989 58.7845 75.3618 58.939 75.355C59.0936 75.3483 59.248 75.372 59.3934 75.425C59.5388 75.4779 59.6724 75.5589 59.7865 75.6635C59.9006 75.768 59.9929 75.894 60.0583 76.0342C60.1237 76.1745 60.1608 76.3262 60.1676 76.4808C60.1743 76.6354 60.1506 76.7898 60.0977 76.9352C60.0447 77.0806 59.9637 77.2141 59.8591 77.3282C59.7546 77.4423 59.6286 77.5346 59.4884 77.6V77.6Z" fill="#CCCCCC"/>
<path d="M62.1026 83.2063L31.9365 97.2729C31.6533 97.405 31.3292 97.4191 31.0356 97.3122C30.7419 97.2054 30.5028 96.9862 30.3707 96.703C30.2386 96.4198 30.2245 96.0957 30.3314 95.802C30.4382 95.5084 30.6574 95.2692 30.9406 95.1372L61.1067 81.0705C61.3899 80.9384 61.714 80.9243 62.0076 81.0312C62.3013 81.138 62.5404 81.3572 62.6725 81.6404C62.8046 81.9236 62.8187 82.2477 62.7118 82.5414C62.605 82.835 62.3858 83.0742 62.1026 83.2063V83.2063Z" fill="#CCCCCC"/>
<path d="M64.7167 88.8122L34.5507 102.879C34.2674 103.011 33.9434 103.025 33.6497 102.918C33.3561 102.811 33.1169 102.592 32.9848 102.309C32.8528 102.026 32.8386 101.702 32.9455 101.408C33.0524 101.114 33.2715 100.875 33.5548 100.743L63.7208 86.6765C64.004 86.5444 64.3281 86.5302 64.6218 86.6371C64.9154 86.744 65.1546 86.9632 65.2866 87.2464C65.4187 87.5296 65.4329 87.8537 65.326 88.1473C65.2191 88.441 64.9999 88.6801 64.7167 88.8122V88.8122Z" fill="#CCCCCC"/>
<path d="M67.3309 94.4184L37.1648 108.485C36.8816 108.617 36.5576 108.631 36.2639 108.524C35.9703 108.418 35.7311 108.198 35.599 107.915C35.467 107.632 35.4528 107.308 35.5597 107.014C35.6666 106.721 35.8857 106.481 36.1689 106.349L66.335 92.2827C66.6182 92.1506 66.9423 92.1364 67.236 92.2433C67.5296 92.3502 67.7688 92.5693 67.9008 92.8525C68.0329 93.1358 68.0471 93.4598 67.9402 93.7535C67.8333 94.0471 67.6141 94.2863 67.3309 94.4184V94.4184Z" fill="#CCCCCC"/>
<path d="M69.945 100.024L39.7789 114.091C39.4957 114.223 39.1716 114.237 38.878 114.13C38.5843 114.023 38.3451 113.804 38.2131 113.521C38.081 113.238 38.0669 112.914 38.1738 112.62C38.2806 112.327 38.4998 112.087 38.783 111.955L68.9491 97.8886C69.2323 97.7566 69.5564 97.7424 69.85 97.8493C70.1437 97.9561 70.3828 98.1753 70.5149 98.4585C70.647 98.7417 70.6611 99.0658 70.5542 99.3594C70.4473 99.6531 70.2282 99.8922 69.945 100.024V100.024Z" fill="#CCCCCC"/>
<mask id="path-16-inside-1" fill="white">
<path d="M102.293 91.7487C102.293 89.2719 101.805 86.8193 100.857 84.5311C99.9095 82.2428 98.5202 80.1636 96.7689 78.4122C95.0175 76.6608 92.9383 75.2716 90.65 74.3237C88.3618 73.3759 85.9092 72.8881 83.4324 72.8881C80.9556 72.8881 78.503 73.3759 76.2147 74.3237C73.9264 75.2716 71.8472 76.6608 70.0959 78.4122C68.3445 80.1636 66.9552 82.2428 66.0074 84.5311C65.0596 86.8193 64.5717 89.2719 64.5717 91.7487L83.4324 91.7487H102.293Z"/>
</mask>
<path d="M102.293 91.7487C102.293 89.2719 101.805 86.8193 100.857 84.5311C99.9095 82.2428 98.5202 80.1636 96.7689 78.4122C95.0175 76.6608 92.9383 75.2716 90.65 74.3237C88.3618 73.3759 85.9092 72.8881 83.4324 72.8881C80.9556 72.8881 78.503 73.3759 76.2147 74.3237C73.9264 75.2716 71.8472 76.6608 70.0959 78.4122C68.3445 80.1636 66.9552 82.2428 66.0074 84.5311C65.0596 86.8193 64.5717 89.2719 64.5717 91.7487L83.4324 91.7487H102.293Z" fill="white" stroke="black" stroke-opacity="0.91" stroke-width="2" mask="url(#path-16-inside-1)"/>
<path d="M63.856 79.8765V143.6L40.7949 141.234L30.7636 140.211L27.7076 139.892L17.6827 138.862L3.83447 137.443V75.7847L53.0575 79.1348L63.856 79.8765Z" fill="#6C63FF"/>
<path d="M112.102 72.1913V134.335L93.6184 137.884L84.6292 139.61L63.8569 143.599V79.8762L112.102 72.1913Z" fill="#6C63FF"/>
<path opacity="0.05" d="M112.102 72.1913V134.335L93.6184 137.884L84.6292 139.61L63.8569 143.599V79.8762L112.102 72.1913Z" fill="black"/>
<path opacity="0.1" d="M93.6187 137.884L84.6295 139.61V126.331L93.0497 124.208L93.6187 137.884Z" fill="white"/>
<path opacity="0.1" d="M40.7975 132.449V141.234L30.7662 140.211V132.449H40.7975Z" fill="white"/>
<path opacity="0.1" d="M27.7078 135.217V139.891L17.6829 138.861V135.217H27.7078Z" fill="white"/>
<rect x="10.8693" y="44.3064" width="10.8688" height="10.8688" transform="rotate(-67 10.8693 44.3064)" fill="#7EE4FA"/>
<rect x="35.6322" y="29.9252" width="15.3442" height="15.3442" transform="rotate(-75 35.6322 29.9252)" fill="#6F8CF0"/>
<line x1="64.2935" y1="81.1993" x2="64.2935" y2="141.982" stroke="white" stroke-width="2"/>
<path d="M79.9489 104.19C87.4576 100.116 93.3912 96.8933 109.483 102.64C117.215 105.399 123.451 106.435 128.643 106.435C137.729 106.435 143.621 103.239 148.713 100.475C149.143 100.246 149.5 99.9616 149.76 99.6385C150.021 99.3153 150.18 98.9605 150.229 98.5953C150.278 98.2302 150.215 97.8622 150.045 97.5135C149.874 97.1649 149.599 96.8428 149.237 96.5666C148.486 96.0027 147.437 95.6534 146.309 95.5919C145.18 95.5304 144.06 95.7614 143.182 96.2367C135.673 100.314 129.742 103.533 113.643 97.786C92.3816 90.1961 82.4196 95.6031 74.4172 99.9475C73.9867 100.176 73.6304 100.461 73.3698 100.784C73.1091 101.107 72.9495 101.462 72.9006 101.827C72.8517 102.192 72.9145 102.56 73.0852 102.908C73.2559 103.257 73.5309 103.579 73.8938 103.855C74.6431 104.419 75.6916 104.769 76.8201 104.832C77.9486 104.894 79.0696 104.664 79.9489 104.19Z" fill="#ABE8F5"/>
<path d="M79.9489 116.64C87.4576 112.567 93.3912 109.344 109.483 115.091C117.215 117.85 123.451 118.886 128.643 118.886C137.729 118.886 143.621 115.69 148.713 112.926C149.143 112.697 149.5 112.412 149.76 112.089C150.021 111.766 150.18 111.411 150.229 111.046C150.278 110.681 150.215 110.313 150.045 109.964C149.874 109.616 149.599 109.294 149.237 109.017C148.486 108.453 147.437 108.104 146.309 108.043C145.18 107.981 144.06 108.212 143.182 108.687C135.673 112.765 129.742 115.984 113.643 110.237C92.3816 102.647 82.4196 108.054 74.4172 112.398C73.9867 112.627 73.6304 112.912 73.3698 113.235C73.1091 113.558 72.9495 113.912 72.9006 114.277C72.8517 114.643 72.9145 115.011 73.0852 115.359C73.2559 115.708 73.5309 116.03 73.8938 116.305C74.6431 116.87 75.6916 117.22 76.8201 117.283C77.9486 117.345 79.0696 117.115 79.9489 116.64Z" fill="#ABE8F5"/>
</svg>
