<svg width="32" height="28" viewBox="0 0 32 28" fill="none" xmlns="http://www.w3.org/2000/svg">

<path d="M14.2822 0.547332C13.7603 0.977116 10.1071 6.13452 9.83085 6.80989C9.73875 7.05548 9.83085 7.45457 10.0457 7.70016C10.8132 8.62112 11.7035 8.19134 13.5454 6.04242L15.3873 3.9242L17.9353 6.04242C20.8517 8.43693 21.9262 8.74392 22.8164 7.39317C23.2155 6.77919 23.2769 6.44151 23.0006 5.88893C22.6323 5.06006 16.0013 0.178946 15.2645 0.178946C14.9882 0.178946 14.5585 0.363139 14.2822 0.547332Z" fill="white"/>
<path d="M24.9977 0.976783C23.9847 1.98984 23.7391 2.72662 23.9847 4.01597C24.2303 5.30532 25.7345 6.62537 26.9625 6.62537C29.1421 6.62537 30.8305 4.69134 30.4314 2.63452C29.9709 0.332108 26.6555 -0.680953 24.9977 0.976783Z" fill="white"/>
<path d="M23.8617 6.56435C23.8617 7.51602 22.2653 9.08166 21.3137 9.08166C20.9146 9.08166 19.8708 8.52908 19.0113 7.8537L17.4763 6.62575L14.8362 9.45004C12.6566 11.8139 12.1961 12.4892 12.1961 13.2874C12.1961 14.4233 12.4724 14.7302 15.2353 16.8485C16.3098 17.6773 17.1079 18.3834 17.0465 18.4755C16.9544 18.5369 15.6037 19.1202 14.038 19.7649C10.8454 21.0542 10.3542 21.5147 10.9068 22.712C11.3979 23.8171 12.104 23.7557 17.2 22.2208C23.2784 20.4095 23.5547 19.7956 19.9936 15.8968C18.8578 14.6688 17.9982 13.6251 18.0596 13.5637C18.121 13.533 19.441 12.612 20.9453 11.5376C24.8133 8.80537 25.4273 7.9151 24.3221 6.44156C23.8924 5.88898 23.8924 5.88898 23.8617 6.56435Z" fill="white"/>
<path d="M22.4178 11.4754C21.681 11.9359 21.0977 12.3656 21.0977 12.4577C21.0977 12.5498 21.5275 13.1638 22.0801 13.8085L23.0624 15.0057L26.8998 14.7908C30.6144 14.6067 31.5353 14.3304 31.5353 13.5015C31.5353 12.5805 30.5837 12.1507 28.4961 12.1507C25.6718 12.1507 24.536 11.9052 24.3211 11.1991C24.0755 10.4623 23.9527 10.4623 22.4178 11.4754Z" fill="white"/>
<path d="M5.80924 19.2422C0.375546 25.2285 -0.207733 26.1802 1.11232 26.8862C1.45001 27.0397 1.94119 27.1932 2.21748 27.1932C2.58586 27.1932 7.22139 23.1717 13.5761 17.3082C13.7602 17.124 13.5454 16.7249 12.9007 16.1723C12.3481 15.7119 11.7341 14.9137 11.4885 14.3611L11.0894 13.4094L5.80924 19.2422Z" fill="white"/>
</svg>
