<svg width="145" height="192" viewBox="0 0 145 192" fill="none" xmlns="http://www.w3.org/2000/svg">
    <defs>
        <linearGradient id="paint0_linear" x1="91.15" y1="168.902" x2="130.812" y2="20.8809"
            gradientUnits="userSpaceOnUse">
            <stop stop-color="#808080" stop-opacity="0.25" />
            <stop offset="0.54" stop-color="#808080" stop-opacity="0.12" />
            <stop offset="1" stop-color="#808080" stop-opacity="0.1" />
        </linearGradient>
        <clipPath id="clip0">
            <rect width="145" height="191.489" rx="20" fill="white" />
        </clipPath>
        <clipPath id="clip1">
            <rect width="66.2667" height="143.893" fill="white" transform="translate(66.0176 2.21191) rotate(15)" />
        </clipPath>
    </defs>
    <g clip-path="url(#clip0)">
        <path
            d="M151.63 67.0863C142.155 81.1338 128.7 91.6603 114.227 96.3499C99.7531 101.04 85.4456 99.5083 74.4519 92.0929C63.4582 84.6776 56.6787 71.9856 55.6049 56.809C54.5312 41.6325 59.251 25.2145 68.7262 11.167L110.178 39.1267L151.63 67.0863Z"
            fill="#A499FF" />
        <rect width="34" height="34" transform="matrix(-0.390731 -0.920505 -0.920505 0.390731 29.582 52.4976)"
            fill="#A499FF" />
        <path opacity="0.97"
            d="M0 193.284C0 182.918 3.52945 172.977 9.81192 165.647C16.0944 158.318 24.6152 154.2 33.5 154.2C42.3848 154.2 50.9056 158.318 57.1881 165.647C63.4705 172.977 67 182.918 67 193.284L33.5 193.284H0Z"
            fill="#A59AFF" />
        <g clip-path="url(#clip1)">
            <path
                d="M60.0995 134.806C59.7516 134.592 59.4283 134.341 59.1355 134.056L60.0995 134.806ZM70.9385 71.103L70.7332 71.9216L70.6696 71.9326C70.7639 71.6503 70.8527 71.3712 70.9385 71.103Z"
                fill="url(#paint0_linear)" />
            <path
                d="M99.3644 57.5526C99.3644 57.5526 100.871 48.0169 104.064 51.3187C107.256 54.6206 103.55 57.9751 103.55 57.9751L101.889 60.5986L99.3644 57.5526Z"
                fill="#90ACFF" />
            <path
                d="M113.392 29.5474L116.138 27.9952C116.138 27.9952 123.519 17.1187 126.824 21.3057C130.129 25.4928 118.677 30.7723 118.677 30.7723L115.418 33.0049L113.392 29.5474Z"
                fill="#90ACFF" />
            <path
                d="M68.8715 68.4522L68.1029 70.886C68.1029 70.886 69.1644 74.8983 69.9288 75.3757C70.6932 75.8531 72.6607 68.2233 72.6607 68.2233L68.8715 68.4522Z"
                fill="#7165E5" />
            <path opacity="0.1"
                d="M68.8715 68.4522L68.1029 70.886C68.1029 70.886 69.1644 74.8983 69.9288 75.3757C70.6932 75.8531 72.6607 68.2233 72.6607 68.2233L68.8715 68.4522Z"
                fill="black" />
            <path d="M72.9286 66.6409L70.644 75.7584L80.7502 78.4663L81.4065 72.9735L72.9286 66.6409Z" fill="#90ACFF" />
            <path
                d="M69.2122 89.9367L68.9075 92.9608L71.2991 107.66C71.2991 107.66 72.8727 112.509 69.7669 115.405C66.6611 118.3 62.9593 123.133 61.7133 126.331C60.4672 129.53 56.742 131.989 56.742 131.989L62.2655 136.305C62.2655 136.305 64.0884 131.241 66.4781 129.279C68.8678 127.317 77.3093 118.125 77.3093 118.125C77.3093 118.125 79.5129 117.005 80.3866 112.153C81.2604 107.301 82.1887 103.975 82.1887 103.975L83.6023 96.2389L69.2122 89.9367Z"
                fill="#2F2E41" />
            <path opacity="0.1"
                d="M69.2122 89.9367L68.9075 92.9608L71.2991 107.66C71.2991 107.66 72.8727 112.509 69.7669 115.405C66.6611 118.3 62.9593 123.133 61.7133 126.331C60.4672 129.53 56.742 131.989 56.742 131.989L62.2655 136.305C62.2655 136.305 64.0884 131.241 66.4781 129.279C68.8678 127.317 77.3093 118.125 77.3093 118.125C77.3093 118.125 79.5129 117.005 80.3866 112.153C81.2604 107.301 82.1887 103.975 82.1887 103.975L83.6023 96.2389L69.2122 89.9367Z"
                fill="black" />
            <path
                d="M57.3898 131.737C57.3898 131.737 50.1792 131.978 51.4965 135.905C52.8137 139.832 58.2889 148.094 61.2449 148.653C64.2009 149.212 63.6154 146.762 63.6154 146.762L61.8279 143.72C61.8279 143.72 62.7521 138.532 63.3325 137.096C63.9129 135.661 61.8498 134.369 61.3256 135.161C60.8013 135.952 57.3898 131.737 57.3898 131.737Z"
                fill="#7165E5" />
            <path
                d="M77.5076 73.4643L72.0663 72.633C71.5802 72.5587 71.0838 72.6696 70.6755 72.9437C70.2672 73.2179 69.9767 73.6354 69.8616 74.1136C69.352 76.2417 68.4884 79.6124 68.0285 80.1462C67.3508 80.9362 64.2835 87.0271 68.9047 92.9625L76.0977 97.5692L63.2465 95.0973L61.7726 102.198L64.0203 101.635L87.6414 109.129C87.6414 109.129 94.6019 110.256 91.9704 101.669C89.3389 93.0813 81.4908 83.2501 81.4908 83.2501L82.9164 77.4951L82.6365 75.6354L77.5076 73.4643Z"
                fill="#2F2E41" />
            <path opacity="0.1"
                d="M77.9751 97.9535C78.9324 97.8089 79.9093 97.8636 80.8445 98.1142C81.7796 98.3648 82.653 98.8058 83.4097 99.4097L77.9751 97.9535Z"
                fill="black" />
            <path
                d="M63.8742 95.2237C63.8742 95.2237 56.3859 92.0149 55.9511 93.4898C55.5163 94.9646 52.7667 109.722 56.7613 109.744C60.756 109.766 60.4418 104.556 60.4418 104.556L63.9512 102.623C63.9512 102.623 64.6382 101.216 62.752 100.864L63.8742 95.2237Z"
                fill="#7165E5" />
            <path
                d="M87.6349 58.1375L89.7712 62.4773C89.7712 62.4773 90.6657 64.5041 92.9389 62.3942C95.2121 60.2842 99.397 56.5524 99.397 56.5524C99.397 56.5524 101.918 60.3337 102.943 59.9885C103.967 59.6432 91.7032 69.9102 91.7032 69.9102C91.7032 69.9102 87.7611 73.318 84.8768 67.2656L83.8019 66.3555L87.6349 58.1375Z"
                fill="#7165E5" />
            <path opacity="0.1"
                d="M87.6349 58.1375L89.7712 62.4773C89.7712 62.4773 90.6657 64.5041 92.9389 62.3942C95.2121 60.2842 99.397 56.5524 99.397 56.5524C99.397 56.5524 101.918 60.3337 102.943 59.9885C103.967 59.6432 91.7032 69.9102 91.7032 69.9102C91.7032 69.9102 87.7611 73.318 84.8768 67.2656L83.8019 66.3555L87.6349 58.1375Z"
                fill="black" />
            <path
                d="M82.0453 41.3298C85.587 42.2788 89.2274 40.177 90.1764 36.6352C91.1254 33.0935 89.0236 29.4531 85.4819 28.5041C81.9402 27.5551 78.2998 29.6569 77.3508 33.1986C76.4018 36.7403 78.5036 40.3808 82.0453 41.3298Z"
                fill="#90ACFF" />
            <path opacity="0.1"
                d="M82.8365 38.3684C82.8365 38.3684 76.6268 39.5005 76.0558 44.2403C75.4847 48.9801 74.0498 54.7699 74.0498 54.7699C74.0498 54.7699 75.5617 59.1359 70.3514 65.312C70.3514 65.312 67.2708 68.3309 67.9848 71.3181C67.9848 71.3181 70.6589 67.6078 73.8954 71.7369C77.132 75.866 83.2771 79.0271 83.2771 79.0271C83.2771 79.0271 83.8685 63.3421 86.487 61.8303C86.487 61.8303 91.5009 57.4655 89.143 53.2223C86.7851 48.9791 89.2601 46.2639 89.2601 46.2639L101.236 43.4547C101.236 43.4547 103.435 44.0813 107.649 40.2407C110.367 37.7931 113.244 35.5284 116.262 33.4618C116.262 33.4618 114.917 29.4901 112.885 28.6731C112.885 28.6731 111.818 29.3189 110.608 31.5205C109.964 32.6877 107.307 34.2147 104.958 35.3909C103.29 36.2254 101.657 37.1183 100.022 38.0292C98.8136 38.6956 96.3204 39.4442 91.455 38.942C83.449 38.1085 82.8365 38.3684 82.8365 38.3684Z"
                fill="black" />
            <path
                d="M82.953 37.9336C82.953 37.9336 76.7433 39.0656 76.1723 43.8055C75.6012 48.5453 74.1664 54.3351 74.1664 54.3351C74.1664 54.3351 75.6782 58.701 70.4679 64.8771C70.4679 64.8771 67.3873 67.8961 68.1013 70.8833C68.1013 70.8833 70.7754 67.173 74.012 71.3021C77.2485 75.4312 83.3936 78.5922 83.3936 78.5922C83.3936 78.5922 83.985 62.9073 86.6035 61.3955C86.6035 61.3955 91.6175 57.0306 89.2595 52.7875C86.9016 48.5443 89.3766 45.8291 89.3766 45.8291L101.353 43.0199C101.353 43.0199 103.552 43.6465 107.766 39.8059C110.484 37.3582 113.361 35.0936 116.379 33.027C116.379 33.027 115.034 29.0553 113.002 28.2383C113.002 28.2383 111.934 28.8841 110.725 31.0856C110.081 32.2529 107.423 33.7799 105.074 34.9561C103.406 35.7905 101.774 36.6835 100.139 37.5944C98.9301 38.2608 96.4369 39.0094 91.5715 38.5072C83.5655 37.6737 82.953 37.9336 82.953 37.9336Z"
                fill="#7165E5" />
            <path opacity="0.1"
                d="M80.3785 66.5238C80.3785 66.5238 82.9631 73.9731 82.7805 75.0891C82.7827 75.0897 83.9461 68.1391 80.3785 66.5238Z"
                fill="black" />
            <path opacity="0.1"
                d="M80.4525 43.7875C80.4525 43.7875 82.4717 48.1729 87.5836 46.3204C86.2852 46.4056 84.983 46.2249 83.7568 45.7894C82.5306 45.3539 81.4062 44.6727 80.4525 43.7875Z"
                fill="black" />
            <path opacity="0.1"
                d="M86.9996 28.5962C87.0088 28.2495 86.9273 27.9064 86.7631 27.6009C86.1108 26.105 85.3824 24.5538 84.0761 23.5771C83.2022 22.954 82.1519 22.627 81.0787 22.6438C80.0056 22.6607 78.966 23.0204 78.1121 23.6705C77.3961 24.2382 76.8571 24.9978 76.1995 25.6348C74.9841 26.8142 73.3962 27.549 71.7711 28.0316C70.7918 28.3214 69.7855 28.5294 68.8353 28.9015C65.3815 30.2524 62.997 33.8213 62.7812 37.531C62.6884 39.1557 62.9579 40.8542 62.3565 42.3682C61.8901 43.5434 60.9533 44.4573 60.0228 45.3124C59.0924 46.1674 58.115 47.0239 57.5361 48.1409C56.9572 49.2579 56.8543 50.7378 57.6462 51.7212C57.9382 52.0837 58.3297 52.3703 58.5555 52.771C58.695 53.0732 58.7936 53.3926 58.8485 53.7209C59.1104 54.815 59.5926 55.8441 60.2656 56.7456C60.9386 57.647 61.7884 58.4017 62.763 58.9636C63.6319 59.4597 64.9101 59.7067 65.4937 58.8938C65.5757 58.7446 65.6761 58.6064 65.7927 58.4823C66.2179 58.1303 66.833 58.5561 67.2443 58.9342C68.1805 59.7951 69.2816 60.4571 70.481 60.8802C70.9496 61.0745 71.4596 61.1478 71.964 61.0935C72.4023 61.001 72.8114 60.8026 73.1556 60.5158C74.698 59.3331 75.5476 57.4755 76.2436 55.6606C76.6974 54.4797 77.118 53.2667 77.2069 52.0044C77.3534 49.9794 76.664 47.8655 77.361 45.96C78.105 43.9226 80.2556 42.6699 81.0706 40.6632C81.4933 39.6115 81.5159 38.4413 81.1341 37.374C80.9787 37.0344 80.8655 36.677 80.7972 36.3099C80.7671 36.1254 80.793 35.9361 80.8717 35.7665C80.9504 35.5969 81.0781 35.4548 81.2384 35.3587C81.4021 35.2986 81.5746 35.266 81.7488 35.2624C83.2905 35.1 84.4112 33.8999 84.8951 32.4941C85.0798 31.9611 85.1747 31.4507 85.4668 30.9604C85.9255 30.205 86.8894 29.5033 86.9996 28.5962Z"
                fill="black" />
            <path
                d="M86.5649 28.4798C86.574 28.133 86.4925 27.7899 86.3283 27.4844C85.676 25.9885 84.9476 24.4374 83.6413 23.4606C82.7674 22.8376 81.7171 22.5106 80.644 22.5274C79.5709 22.5442 78.5313 22.904 77.6773 23.5541C76.9614 24.1218 76.4223 24.8814 75.7647 25.5183C74.5493 26.6978 72.9615 27.4326 71.3364 27.9151C70.357 28.2049 69.3507 28.4129 68.4006 28.7851C64.9468 30.1359 62.5623 33.7048 62.3465 37.4145C62.2536 39.0392 62.5231 40.7377 61.9217 42.2518C61.4554 43.4269 60.5185 44.3408 59.5881 45.1959C58.6577 46.051 57.6803 46.9074 57.1014 48.0245C56.5225 49.1415 56.4195 50.6213 57.2115 51.6048C57.5035 51.9672 57.895 52.2539 58.1208 52.6545C58.2603 52.9567 58.3589 53.2762 58.4138 53.6044C58.6756 54.6985 59.1578 55.7277 59.8309 56.6291C60.5039 57.5305 61.3536 58.2852 62.3282 58.8472C63.1971 59.3433 64.4753 59.5902 65.0589 58.7774C65.1409 58.6282 65.2414 58.4899 65.3579 58.3659C65.7831 58.0138 66.3983 58.4396 66.8095 58.8177C67.7458 59.6786 68.8469 60.3406 70.0463 60.7638C70.5149 60.958 71.0248 61.0313 71.5292 60.977C71.9676 60.8845 72.3766 60.6862 72.7208 60.3993C74.2632 59.2166 75.1128 57.359 75.8088 55.5441C76.2627 54.3633 76.6832 53.1502 76.7722 51.888C76.9187 49.8629 76.2293 47.749 76.9262 45.8435C77.6702 43.8061 79.8209 42.5534 80.6358 40.5467C81.0586 39.495 81.0812 38.3248 80.6993 37.2576C80.5439 36.918 80.4308 36.5606 80.3624 36.1934C80.3323 36.0089 80.3583 35.8196 80.437 35.65C80.5156 35.4804 80.6434 35.3384 80.8037 35.2422C80.9673 35.1821 81.1398 35.1496 81.3141 35.146C82.8557 34.9836 83.9765 33.7834 84.4603 32.3776C84.6451 31.8447 84.7399 31.3342 85.032 30.844C85.4907 30.0885 86.4546 29.3868 86.5649 28.4798Z"
                fill="#2F2E41" />
            <g opacity="0.1">
                <path opacity="0.1"
                    d="M64.7129 58.1813C64.5964 58.3057 64.4953 58.4437 64.4118 58.5923C64.0652 59.0772 63.4705 59.1835 62.8651 59.0865C63.6625 59.3887 64.5916 59.4256 65.0639 58.767C65.1475 58.6184 65.2486 58.4805 65.3651 58.3561C65.4412 58.2909 65.5334 58.2472 65.632 58.2296C65.3272 58.0454 64.9869 57.9589 64.7129 58.1813Z"
                    fill="black" />
                <path opacity="0.1"
                    d="M86.5762 28.4804C86.5878 28.1334 86.5061 27.7897 86.3397 27.485C85.6874 25.9892 84.959 24.438 83.6527 23.4612C83.0834 23.0426 82.4275 22.757 81.7332 22.6254C82.1875 22.7783 82.6152 23.0013 83.0006 23.2865C84.3069 24.2632 85.0352 25.8144 85.6875 27.3103C85.8539 27.615 85.9356 27.9587 85.9241 28.3056C85.815 29.2084 84.8516 29.9171 84.3969 30.6574C84.0961 31.1453 84.0084 31.6553 83.8252 32.191C83.3398 33.594 82.2224 34.7904 80.6768 34.9588C80.5025 34.9624 80.33 34.9949 80.1664 35.055C80.0059 35.1516 79.8781 35.2942 79.7997 35.4643C79.7213 35.6344 79.6959 35.8242 79.7267 36.009C79.7943 36.3759 79.9068 36.7331 80.0615 37.0726C80.4442 38.1389 80.4226 39.3086 80.0007 40.3601C79.1824 42.3706 77.0302 43.6205 76.289 45.6563C75.5908 47.5662 76.2836 49.6763 76.1355 51.6986C76.0444 52.9603 75.626 54.1739 75.1721 55.3547C74.4761 57.1696 73.6281 59.03 72.0841 60.21C71.7408 60.497 71.3324 60.6956 70.8947 60.7883C70.643 60.8266 70.3867 60.8218 70.1366 60.7739C70.5838 60.9526 71.0684 61.0176 71.5468 60.963C71.9839 60.8757 72.393 60.683 72.7387 60.4017C74.2827 59.2217 75.1307 57.3613 75.8267 55.5464C76.2806 54.3656 76.7011 53.1526 76.7901 51.8903C76.9382 49.868 76.2472 47.7514 76.9436 45.848C77.6903 43.8091 79.8382 42.5579 80.6553 40.5518C81.0772 39.5003 81.0988 38.3306 80.7161 37.2643C80.5614 36.9248 80.4489 36.5676 80.3813 36.2007C80.3505 36.0159 80.3759 35.8261 80.4543 35.656C80.5327 35.4859 80.6605 35.3433 80.821 35.2467C80.9846 35.1866 81.1571 35.1541 81.3314 35.1505C82.8758 34.9865 83.9944 33.7858 84.4798 32.3827C84.663 31.847 84.7594 31.3393 85.0515 30.8491C85.5037 30.0919 86.4654 29.3896 86.5762 28.4804Z"
                    fill="black" />
            </g>
            <path opacity="0.1"
                d="M57.7893 102.994C58.0529 103.501 58.4538 103.923 58.9461 104.212C59.4385 104.502 60.0024 104.647 60.5732 104.63"
                fill="black" />
            <path opacity="0.1"
                d="M61.7588 143.9C61.506 144.012 61.232 144.068 60.9555 144.064C60.679 144.06 60.4067 143.996 60.1575 143.876"
                fill="black" />
        </g>
        <path
            d="M100.346 17.4751C100.495 16.3315 102.15 16.3315 102.299 17.4751C102.372 18.0371 102.91 18.4203 103.466 18.3141C104.631 18.0918 105.233 19.6807 104.184 20.2332L104.003 20.3283C103.512 20.587 103.316 21.19 103.561 21.6882L103.682 21.9329C104.189 22.9639 102.825 23.8845 102.059 23.0276C101.666 22.5882 100.979 22.5882 100.586 23.0276C99.8203 23.8845 98.4558 22.9639 98.9637 21.9329L99.0842 21.6883C99.3296 21.19 99.1336 20.587 98.6422 20.3283L98.4616 20.2332C97.4118 19.6807 98.0137 18.0918 99.179 18.3141C99.7356 18.4203 100.273 18.0371 100.346 17.4751Z"
            fill="#C4C4C4" />
        <path
            d="M49.5886 14.937C49.8005 13.8614 51.339 13.8614 51.5509 14.937L51.6095 15.2343C51.7101 15.7451 52.1858 16.0932 52.7032 16.0346L53.215 15.9766C54.2737 15.8567 54.7608 17.2548 53.8569 17.8187L53.2577 18.1925C52.8435 18.4509 52.6764 18.9706 52.8624 19.4219L53.0813 19.9533C53.4947 20.9568 52.2379 21.8078 51.4597 21.0513L51.2668 20.8638C50.8787 20.4865 50.2609 20.4865 49.8727 20.8638L49.6798 21.0513C48.9016 21.8078 47.6448 20.9568 48.0582 19.9533L48.2771 19.4219C48.4631 18.9706 48.296 18.4509 47.8818 18.1925L47.2826 17.8187C46.3787 17.2548 46.8658 15.8567 47.9245 15.9766L48.4363 16.0346C48.9537 16.0932 49.4294 15.7451 49.53 15.2343L49.5886 14.937Z"
            fill="#6F8CF0" />
        <path
            d="M42.2069 36.8056C42.4717 35.8173 43.8741 35.8173 44.1388 36.8056L44.5701 38.4157C44.6906 38.8656 45.1058 39.1727 45.5712 39.1563L47.2927 39.0958C48.277 39.0611 48.7133 40.3202 47.9186 40.902L46.3561 42.046C46.005 42.303 45.8604 42.7575 45.9985 43.1701L46.6014 44.9724C46.9217 45.9297 45.7831 46.7046 45.01 46.0555L43.816 45.0528C43.4441 44.7405 42.9017 44.7405 42.5298 45.0528L41.3358 46.0555C40.5627 46.7046 39.4241 45.9297 39.7444 44.9724L40.3473 43.1701C40.4854 42.7575 40.3408 42.303 39.9897 42.046L38.4272 40.902C37.6325 40.3202 38.0688 39.0611 39.0531 39.0958L40.7746 39.1563C41.24 39.1727 41.6552 38.8656 41.7757 38.4157L42.2069 36.8056Z"
            fill="#7EE4FA" />
    </g>
</svg>