<svg width="102" height="157" viewBox="0 0 102 157" fill="none" xmlns="http://www.w3.org/2000/svg">
    <defs>
        <linearGradient id="paint0_linear" x1="62.3748" y1="166.69" x2="102.037" y2="18.669"
            gradientUnits="userSpaceOnUse">
            <stop stop-color="#808080" stop-opacity="0.25" />
            <stop offset="0.54" stop-color="#808080" stop-opacity="0.12" />
            <stop offset="1" stop-color="#808080" stop-opacity="0.1" />
        </linearGradient>
        <clipPath id="clip0">
            <rect width="66.2667" height="143.893" fill="white" transform="translate(37.2423) rotate(15)" />
        </clipPath>
    </defs>
    <g clip-path="url(#clip0)">
        <path
            d="M31.3242 132.594C30.9763 132.381 30.653 132.129 30.3602 131.844L31.3242 132.594ZM42.1633 68.891L41.9579 69.7097L41.8944 69.7207C41.9887 69.4384 42.0774 69.1593 42.1633 68.891Z"
            fill="url(#paint0_linear)" />
        <path
            d="M70.5891 55.3407C70.5891 55.3407 72.0957 45.805 75.2883 49.1068C78.4809 52.4087 74.7746 55.7632 74.7746 55.7632L73.114 58.3867L70.5891 55.3407Z"
            fill="#90ACFF" />
        <path
            d="M84.6168 27.3355L87.3626 25.7832C87.3626 25.7832 94.7434 14.9068 98.0484 19.0938C101.353 23.2809 89.9014 28.5604 89.9014 28.5604L86.6424 30.793L84.6168 27.3355Z"
            fill="#90ACFF" />
        <path
            d="M40.0963 66.2402L39.3276 68.6741C39.3276 68.6741 40.3891 72.6863 41.1535 73.1638C41.918 73.6412 43.8855 66.0114 43.8855 66.0114L40.0963 66.2402Z"
            fill="#7165E5" />
        <path opacity="0.1"
            d="M40.0963 66.2402L39.3276 68.6741C39.3276 68.6741 40.3891 72.6863 41.1535 73.1638C41.918 73.6412 43.8855 66.0114 43.8855 66.0114L40.0963 66.2402Z"
            fill="black" />
        <path d="M44.1534 64.429L41.8687 73.5465L51.9749 76.2544L52.6312 70.7616L44.1534 64.429Z" fill="#90ACFF" />
        <path
            d="M40.4369 87.7248L40.1322 90.7489L42.5238 105.448C42.5238 105.448 44.0975 110.297 40.9917 113.193C37.8859 116.088 34.1841 120.921 32.938 124.12C31.6919 127.318 27.9668 129.777 27.9668 129.777L33.4903 134.093C33.4903 134.093 35.3131 129.029 37.7028 127.067C40.0925 125.105 48.534 115.913 48.534 115.913C48.534 115.913 50.7376 114.793 51.6114 109.941C52.4851 105.089 53.4134 101.763 53.4134 101.763L54.827 94.027L40.4369 87.7248Z"
            fill="#2F2E41" />
        <path opacity="0.1"
            d="M40.4369 87.7248L40.1322 90.7489L42.5238 105.448C42.5238 105.448 44.0975 110.297 40.9917 113.193C37.8859 116.088 34.1841 120.921 32.938 124.12C31.6919 127.318 27.9668 129.777 27.9668 129.777L33.4903 134.093C33.4903 134.093 35.3131 129.029 37.7028 127.067C40.0925 125.105 48.534 115.913 48.534 115.913C48.534 115.913 50.7376 114.793 51.6114 109.941C52.4851 105.089 53.4134 101.763 53.4134 101.763L54.827 94.027L40.4369 87.7248Z"
            fill="black" />
        <path
            d="M28.6146 129.525C28.6146 129.525 21.4039 129.766 22.7212 133.693C24.0385 137.621 29.5136 145.882 32.4696 146.441C35.4256 147 34.8401 144.55 34.8401 144.55L33.0527 141.508C33.0527 141.508 33.9768 136.32 34.5573 134.884C35.1377 133.449 33.0746 132.157 32.5503 132.949C32.026 133.74 28.6146 129.525 28.6146 129.525Z"
            fill="#7165E5" />
        <path
            d="M48.7324 71.2524L43.2911 70.4211C42.8049 70.3468 42.3085 70.4576 41.9002 70.7318C41.4919 71.006 41.2015 71.4235 41.0864 71.9017C40.5767 74.0298 39.7131 77.4004 39.2532 77.9343C38.5756 78.7242 35.5083 84.8152 40.1295 90.7506L47.3224 95.3573L34.4712 92.8854L32.9974 99.9858L35.2451 99.4231L58.8661 106.917C58.8661 106.917 65.8266 108.044 63.1951 99.4566C60.5636 90.8694 52.7156 81.0382 52.7156 81.0382L54.1411 75.2832L53.8613 73.4235L48.7324 71.2524Z"
            fill="#2F2E41" />
        <path opacity="0.1"
            d="M49.1998 95.7416C50.1572 95.597 51.134 95.6517 52.0692 95.9023C53.0043 96.1529 53.8777 96.5939 54.6345 97.1978L49.1998 95.7416Z"
            fill="black" />
        <path
            d="M35.099 93.0118C35.099 93.0118 27.6107 89.803 27.1759 91.2779C26.7411 92.7527 23.9915 107.51 27.9861 107.532C31.9807 107.554 31.6665 102.344 31.6665 102.344L35.176 100.411C35.176 100.411 35.8629 99.004 33.9767 98.6523L35.099 93.0118Z"
            fill="#7165E5" />
        <path
            d="M58.8596 55.9255L60.9959 60.2654C60.9959 60.2654 61.8904 62.2922 64.1636 60.1822C66.4368 58.0723 70.6217 54.3405 70.6217 54.3405C70.6217 54.3405 73.143 58.1218 74.1675 57.7766C75.192 57.4313 62.9279 67.6983 62.9279 67.6983C62.9279 67.6983 58.9859 71.1061 56.1015 65.0537L55.0267 64.1436L58.8596 55.9255Z"
            fill="#7165E5" />
        <path opacity="0.1"
            d="M58.8596 55.9255L60.9959 60.2654C60.9959 60.2654 61.8904 62.2922 64.1636 60.1822C66.4368 58.0723 70.6217 54.3405 70.6217 54.3405C70.6217 54.3405 73.143 58.1218 74.1675 57.7766C75.192 57.4313 62.9279 67.6983 62.9279 67.6983C62.9279 67.6983 58.9859 71.1061 56.1015 65.0537L55.0267 64.1436L58.8596 55.9255Z"
            fill="black" />
        <path
            d="M53.27 39.1179C56.8117 40.0669 60.4521 37.965 61.4011 34.4233C62.3501 30.8816 60.2483 27.2412 56.7066 26.2922C53.1649 25.3432 49.5245 27.445 48.5755 30.9867C47.6265 34.5284 49.7283 38.1689 53.27 39.1179Z"
            fill="#90ACFF" />
        <path opacity="0.1"
            d="M54.0612 36.1565C54.0612 36.1565 47.8515 37.2886 47.2805 42.0284C46.7094 46.7682 45.2746 52.558 45.2746 52.558C45.2746 52.558 46.7864 56.9239 41.5761 63.1001C41.5761 63.1001 38.4955 66.119 39.2095 69.1062C39.2095 69.1062 41.8836 65.3959 45.1202 69.525C48.3567 73.6541 54.5018 76.8151 54.5018 76.8151C54.5018 76.8151 55.0932 61.1302 57.7118 59.6184C57.7118 59.6184 62.7257 55.2536 60.3677 51.0104C58.0098 46.7672 60.4848 44.052 60.4848 44.052L72.4608 41.2428C72.4608 41.2428 74.6601 41.8694 78.8741 38.0288C81.5919 35.5811 84.4692 33.3165 87.4869 31.2499C87.4869 31.2499 86.142 27.2782 84.1102 26.4612C84.1102 26.4612 83.0425 27.107 81.8328 29.3085C81.1892 30.4758 78.5317 32.0028 76.1825 33.179C74.5143 34.0134 72.8818 34.9064 71.2467 35.8173C70.0384 36.4837 67.5451 37.2323 62.6797 36.7301C54.6737 35.8966 54.0612 36.1565 54.0612 36.1565Z"
            fill="black" />
        <path
            d="M54.1777 35.7217C54.1777 35.7217 47.9681 36.8537 47.397 41.5935C46.826 46.3333 45.3911 52.1231 45.3911 52.1231C45.3911 52.1231 46.903 56.4891 41.6926 62.6652C41.6926 62.6652 38.612 65.6841 39.3261 68.6714C39.3261 68.6714 42.0001 64.961 45.2367 69.0902C48.4733 73.2193 54.6184 76.3803 54.6184 76.3803C54.6184 76.3803 55.2098 60.6953 57.8283 59.1835C57.8283 59.1835 62.8422 54.8187 60.4843 50.5756C58.1263 46.3324 60.6013 43.6172 60.6013 43.6172L72.5773 40.808C72.5773 40.808 74.7766 41.4345 78.9907 37.594C81.7085 35.1463 84.5857 32.8817 87.6034 30.8151C87.6034 30.8151 86.2585 26.8434 84.2267 26.0264C84.2267 26.0264 83.159 26.6722 81.9493 28.8737C81.3057 30.041 78.6482 31.5679 76.299 32.7442C74.6309 33.5786 72.9983 34.4716 71.3633 35.3825C70.1549 36.0489 67.6617 36.7974 62.7962 36.2952C54.7903 35.4618 54.1777 35.7217 54.1777 35.7217Z"
            fill="#7165E5" />
        <path opacity="0.1"
            d="M51.6032 64.3119C51.6032 64.3119 54.1878 71.7612 54.0053 72.8772C54.0075 72.8778 55.1709 65.9272 51.6032 64.3119Z"
            fill="black" />
        <path opacity="0.1"
            d="M51.6772 41.5756C51.6772 41.5756 53.6964 45.961 58.8084 44.1084C57.5099 44.1937 56.2077 44.013 54.9816 43.5775C53.7554 43.1419 52.631 42.4607 51.6772 41.5756V41.5756Z"
            fill="black" />
        <path opacity="0.1"
            d="M58.2244 26.3843C58.2335 26.0376 58.152 25.6945 57.9878 25.389C57.3355 23.8931 56.6071 22.3419 55.3008 21.3652C54.4269 20.7421 53.3766 20.4151 52.3035 20.4319C51.2303 20.4487 50.1908 20.8085 49.3368 21.4586C48.6208 22.0263 48.0818 22.7859 47.4242 23.4228C46.2088 24.6023 44.6209 25.3371 42.9958 25.8197C42.0165 26.1095 41.0102 26.3174 40.06 26.6896C36.6063 28.0405 34.2217 31.6094 34.0059 35.319C33.9131 36.9437 34.1826 38.6422 33.5812 40.1563C33.1149 41.3314 32.178 42.2454 31.2476 43.1004C30.3171 43.9555 29.3397 44.812 28.7608 45.929C28.1819 47.046 28.079 48.5259 28.8709 49.5093C29.1629 49.8718 29.5544 50.1584 29.7802 50.5591C29.9198 50.8613 30.0183 51.1807 30.0733 51.509C30.3351 52.603 30.8173 53.6322 31.4903 54.5336C32.1634 55.4351 33.0131 56.1898 33.9877 56.7517C34.8566 57.2478 36.1348 57.4948 36.7184 56.6819C36.8004 56.5327 36.9008 56.3945 37.0174 56.2704C37.4426 55.9184 38.0578 56.3441 38.469 56.7223C39.4052 57.5831 40.5063 58.2452 41.7057 58.6683C42.1744 58.8625 42.6843 58.9359 43.1887 58.8816C43.627 58.789 44.0361 58.5907 44.3803 58.3039C45.9227 57.1212 46.7723 55.2635 47.4683 53.4486C47.9222 52.2678 48.3427 51.0548 48.4316 49.7925C48.5782 47.7675 47.8888 45.6536 48.5857 43.7481C49.3297 41.7107 51.4804 40.458 52.2953 38.4513C52.7181 37.3996 52.7406 36.2294 52.3588 35.1621C52.2034 34.8225 52.0903 34.4651 52.0219 34.0979C51.9918 33.9134 52.0178 33.7242 52.0964 33.5546C52.1751 33.385 52.3029 33.2429 52.4632 33.1467C52.6268 33.0866 52.7993 33.0541 52.9736 33.0505C54.5152 32.8881 55.636 31.6879 56.1198 30.2822C56.3046 29.7492 56.3994 29.2387 56.6915 28.7485C57.1502 27.993 58.1141 27.2914 58.2244 26.3843Z"
            fill="black" />
        <path
            d="M57.7896 26.2678C57.7988 25.9211 57.7172 25.578 57.553 25.2725C56.9007 23.7766 56.1724 22.2255 54.8661 21.2487C53.9922 20.6257 52.9418 20.2986 51.8687 20.3155C50.7956 20.3323 49.756 20.6921 48.9021 21.3422C48.1861 21.9099 47.6471 22.6694 46.9894 23.3064C45.7741 24.4858 44.1862 25.2207 42.5611 25.7032C41.5818 25.993 40.5754 26.201 39.6253 26.5731C36.1715 27.924 33.787 31.4929 33.5712 35.2026C33.4784 36.8273 33.7479 38.5258 33.1465 40.0398C32.6801 41.215 31.7433 42.1289 30.8128 42.984C29.8824 43.8391 28.905 44.6955 28.3261 45.8125C27.7472 46.9296 27.6443 48.4094 28.4362 49.3928C28.7282 49.7553 29.1197 50.042 29.3455 50.4426C29.485 50.7448 29.5836 51.0643 29.6385 51.3925C29.9004 52.4866 30.3826 53.5158 31.0556 54.4172C31.7286 55.3186 32.5784 56.0733 33.5529 56.6352C34.4219 57.1314 35.7001 57.3783 36.2837 56.5655C36.3656 56.4163 36.4661 56.278 36.5827 56.154C37.0078 55.8019 37.623 56.2277 38.0343 56.6058C38.9705 57.4667 40.0716 58.1287 41.271 58.5518C41.7396 58.7461 42.2495 58.8194 42.7539 58.7651C43.1923 58.6726 43.6014 58.4743 43.9455 58.1874C45.488 57.0047 46.3375 55.1471 47.0335 53.3322C47.4874 52.1514 47.908 50.9383 47.9969 49.676C48.1434 47.651 47.454 45.5371 48.151 43.6316C48.8949 41.5942 51.0456 40.3415 51.8606 38.3348C52.2833 37.2831 52.3059 36.1129 51.9241 35.0457C51.7687 34.706 51.6555 34.3486 51.5871 33.9815C51.557 33.797 51.583 33.6077 51.6617 33.4381C51.7403 33.2685 51.8681 33.1265 52.0284 33.0303C52.192 32.9702 52.3645 32.9377 52.5388 32.9341C54.0805 32.7716 55.2012 31.5715 55.685 30.1657C55.8698 29.6327 55.9646 29.1223 56.2568 28.632C56.7155 27.8766 57.6794 27.1749 57.7896 26.2678Z"
            fill="#2F2E41" />
        <g opacity="0.1">
            <path opacity="0.1"
                d="M35.9377 55.9694C35.8212 56.0938 35.72 56.2318 35.6365 56.3803C35.2899 56.8653 34.6952 56.9716 34.0898 56.8746C34.8872 57.1768 35.8163 57.2137 36.2887 56.5551C36.3722 56.4065 36.4733 56.2686 36.5898 56.1442C36.6659 56.079 36.7581 56.0353 36.8567 56.0176C36.5519 55.8335 36.2116 55.7469 35.9377 55.9694Z"
                fill="black" />
            <path opacity="0.1"
                d="M57.801 26.2685C57.8125 25.9215 57.7308 25.5778 57.5644 25.2731C56.9121 23.7773 56.1837 22.2261 54.8774 21.2493C54.3081 20.8307 53.6522 20.5451 52.9579 20.4134C53.4123 20.5664 53.8399 20.7894 54.2253 21.0746C55.5316 22.0513 56.2599 23.6025 56.9123 25.0984C57.0786 25.403 57.1603 25.7467 57.1488 26.0937C57.0397 26.9964 56.0763 27.7052 55.6216 28.4455C55.3208 28.9333 55.2331 29.4434 55.0499 29.9791C54.5645 31.3821 53.4471 32.5785 51.9015 32.7469C51.7272 32.7505 51.5548 32.783 51.3911 32.8431C51.2306 32.9397 51.1029 33.0823 51.0245 33.2524C50.9461 33.4225 50.9206 33.6123 50.9514 33.7971C51.019 34.164 51.1315 34.5212 51.2862 34.8607C51.6689 35.927 51.6473 37.0967 51.2254 38.1482C50.4071 40.1587 48.2549 41.4086 47.5137 43.4444C46.8156 45.3543 47.5083 47.4644 47.3602 49.4867C47.2691 50.7484 46.8507 51.962 46.3968 53.1428C45.7008 54.9577 44.8529 56.8181 43.3088 57.998C42.9656 58.2851 42.5572 58.4836 42.1194 58.5764C41.8677 58.6147 41.6114 58.6099 41.3614 58.562C41.8085 58.7407 42.2931 58.8057 42.7715 58.7511C43.2086 58.6637 43.6177 58.4711 43.9634 58.1898C45.5075 57.0098 46.3554 55.1494 47.0514 53.3345C47.5053 52.1537 47.9259 50.9407 48.0148 49.6784C48.1629 47.6561 47.4719 45.5395 48.1683 43.6361C48.915 41.5971 51.0629 40.346 51.88 38.3399C52.3019 37.2884 52.3235 36.1187 51.9408 35.0524C51.7861 34.7129 51.6736 34.3557 51.606 33.9888C51.5752 33.804 51.6006 33.6142 51.6791 33.4441C51.7575 33.274 51.8852 33.1314 52.0457 33.0348C52.2094 32.9747 52.3818 32.9422 52.5561 32.9386C54.1005 32.7746 55.2191 31.5738 55.7045 30.1708C55.8877 29.6351 55.9841 29.1274 56.2762 28.6372C56.7284 27.8799 57.6901 27.1777 57.801 26.2685Z"
                fill="black" />
        </g>
        <path opacity="0.1"
            d="M29.014 100.782C29.2776 101.289 29.6785 101.711 30.1709 102.001C30.6632 102.29 31.2271 102.435 31.798 102.418"
            fill="black" />
        <path opacity="0.1"
            d="M32.9835 141.688C32.7308 141.8 32.4567 141.856 32.1802 141.852C31.9037 141.848 31.6315 141.784 31.3822 141.665"
            fill="black" />
    </g>
    <path
        d="M71.5706 15.2632C71.7191 14.1195 73.3747 14.1195 73.5232 15.2632V15.2632C73.5962 15.8251 74.1339 16.2084 74.6905 16.1022V16.1022C75.8558 15.8799 76.4577 17.4688 75.408 18.0213L75.2273 18.1164C74.7359 18.3751 74.5399 18.9781 74.7853 19.4763L74.9059 19.721C75.4138 20.7519 74.0492 21.6726 73.2834 20.8156V20.8156C72.8907 20.3763 72.2031 20.3763 71.8105 20.8156V20.8156C71.0447 21.6726 69.6801 20.7519 70.188 19.721L70.3085 19.4763C70.554 18.9781 70.358 18.3751 69.8665 18.1164L69.6859 18.0213C68.6362 17.4688 69.238 15.8799 70.4033 16.1022V16.1022C70.96 16.2084 71.4977 15.8251 71.5706 15.2632V15.2632Z"
        fill="#C4C4C4" />
    <path
        d="M20.813 12.7251C21.0249 11.6495 22.5633 11.6495 22.7752 12.7251L22.8338 13.0224C22.9345 13.5332 23.4102 13.8813 23.9275 13.8227L24.4394 13.7647C25.498 13.6448 25.9852 15.0429 25.0813 15.6068L24.482 15.9806C24.0679 16.239 23.9008 16.7587 24.0867 17.21L24.3057 17.7414C24.7191 18.7449 23.4623 19.5959 22.6841 18.8394L22.4911 18.6519C22.103 18.2746 21.4852 18.2746 21.0971 18.6519L20.9042 18.8394C20.1259 19.5959 18.8691 18.7449 19.2826 17.7414L19.5015 17.21C19.6875 16.7587 19.5204 16.239 19.1062 15.9806L18.507 15.6068C17.6031 15.0429 18.0902 13.6448 19.1488 13.7647L19.6607 13.8227C20.178 13.8813 20.6538 13.5332 20.7544 13.0224L20.813 12.7251Z"
        fill="#6F8CF0" />
    <path
        d="M13.4313 34.5937C13.696 33.6054 15.0985 33.6054 15.3632 34.5937L15.7945 36.2038C15.915 36.6537 16.3301 36.9608 16.7956 36.9444L18.5171 36.8838C19.5013 36.8492 19.9376 38.1083 19.143 38.6901L17.5804 39.8341C17.2294 40.0911 17.0848 40.5456 17.2228 40.9582L17.8258 42.7605C18.1461 43.7178 17.0075 44.4927 16.2344 43.8436L15.0403 42.8409C14.6685 42.5286 14.1261 42.5286 13.7542 42.8409L12.5601 43.8436C11.7871 44.4927 10.6484 43.7178 10.9687 42.7605L11.5717 40.9582C11.7097 40.5456 11.5651 40.0911 11.2141 39.8341L9.65156 38.6901C8.85691 38.1083 9.29321 36.8492 10.2775 36.8838L11.9989 36.9444C12.4644 36.9608 12.8796 36.6537 13.0001 36.2038L13.4313 34.5937Z"
        fill="#7EE4FA" />

</svg>