<svg width="58" height="77" viewBox="0 0 58 77" fill="none" xmlns="http://www.w3.org/2000/svg">
    <defs>
        <linearGradient id="paint0_linear" x1="33.6405" y1="0" x2="33.6405" y2="19.1688" gradientUnits="userSpaceOnUse">
            <stop stop-color="#66DEEE" />
            <stop offset="1" stop-color="#66DEEE" stop-opacity="0" />
        </linearGradient>
        <linearGradient id="paint1_linear" x1="28.9052" y1="1" x2="28.9052" y2="76.5792" gradientUnits="userSpaceOnUse">
            <stop stop-color="#66DEEE" />
            <stop offset="1" stop-color="#66DEEE" stop-opacity="0" />
        </linearGradient>
        <linearGradient id="paint2_linear" x1="42.2088" y1="11.8062" x2="42.2088" y2="22.9059"
            gradientUnits="userSpaceOnUse">
            <stop stop-color="#66DEEE" />
            <stop offset="1" stop-color="#66DEEE" stop-opacity="0" />
        </linearGradient>
    </defs>
    <path
        d="M30.6599 9.71188C30.2597 6.01079 32.0045 2.18669 35.0004 0C34.5239 2.95775 34.7665 5.96228 35.969 8.72423C37.0502 12.0996 37.1541 16.3707 34.4147 19.0062C34.1115 19.4116 33.7927 18.9646 33.6281 18.6873C31.8884 16.0138 30.9753 12.8672 30.6599 9.71188Z"
        fill="url(#paint0_linear)" />
    <path
        d="M16.071 10.0188C17.873 5.5865 21.9743 2.37404 26.4759 1C24.4954 4.93327 24.3759 9.65319 25.892 13.7615C27.6663 18.7673 31.3327 22.7889 35.2313 26.2665C40.4642 31.1545 43.9244 38.5722 42.086 45.7821C46.4749 37.2762 44.5239 26.6962 39.1352 19.0844C46.047 24.182 51.5033 31.7835 52.7682 40.4072C53.7177 46.5462 52.0162 52.7216 49.3461 58.2126C54.0296 54.7732 55.7485 48.823 57.8017 43.6526C57.9317 50.4725 56.6096 57.4606 53.1944 63.4229C49.45 70.1597 42.3944 74.8138 34.8016 75.895C39.7624 74.5313 41.9681 69.0144 41.6008 64.2754C41.2127 60.0943 38.6881 56.2841 35.3474 53.841C37.6121 57.4086 38.5426 62.106 36.5915 66.015C37.3713 62.2845 35.37 58.6406 32.563 56.3101C29.4787 53.6452 27.2712 49.2007 29.0958 45.1999C25.3947 46.1546 22.7055 50.4223 24.1905 54.113C25.6581 56.7779 27.2314 59.7599 26.6371 62.9048C25.7343 60.7233 23.4922 59.7027 21.8444 58.1918C20.4218 56.7138 20.6367 54.4699 21.2743 52.6852C18.7896 54.4353 18.0151 58.4205 20.1654 60.7372C22.0558 62.9117 23.0781 66.5504 20.8654 68.8671C19.5676 70.0297 19.9366 72.0657 20.9693 73.2751C22.7644 75.4705 25.6962 76.3247 28.4304 76.4806C22.4647 76.9849 16.22 75.5415 11.0651 72.4417C4.69566 68.6228 1.1384 60.8671 1.93545 53.5568C2.42234 49.9111 4.45828 46.4994 4.0355 42.7446C3.72881 40.1196 1.85574 38.1044 0 36.396C3.13449 37.3126 6.03679 39.352 7.64302 42.2387C9.24925 45.1011 9.23885 48.5475 8.5475 51.6751C12.7424 47.7175 11.8708 40.9461 8.84552 36.5415C8.00689 35.0548 6.79399 33.8315 5.89471 32.3882C2.99414 27.3754 4.96077 20.3163 9.64257 17.1091C8.1559 20.8691 7.83015 25.7103 10.8399 28.8292C14.236 32.1283 19.571 34.1677 20.8221 39.1544C22.4127 32.9478 19.4394 26.6563 16.4088 21.3577C14.4543 17.9286 14.5895 13.5969 16.071 10.0188Z"
        fill="url(#paint1_linear)" />
    <path
        d="M41.4418 11.8062C44.8172 14.426 45.3491 19.7541 42.4191 22.9059C40.6223 21.6376 39.4562 19.0212 40.4577 16.9003C41.1611 15.3028 41.5787 13.5597 41.4418 11.8062Z"
        fill="url(#paint2_linear)" />
</svg>