<svg width="360" height="250" viewBox="0 0 360 250" fill="none" xmlns="http://www.w3.org/2000/svg">
    <defs>
        <clipPath id="clip0">
            <rect width="360" height="250" fill="white" />
        </clipPath>
    </defs>
    <g clip-path="url(#clip0)">
        <path opacity="0.1"
            d="M-11.0001 183.851C-11.0001 194.047 -0.069397 203.051 16.6358 208.464C16.4055 209.495 16.2842 210.54 16.2721 211.599C16.2721 228.152 45.0971 241.565 80.6346 241.565C91.9726 241.565 102.623 240.197 111.874 237.8C137.037 245.405 169.884 250.006 205.818 250.006C264.286 250.006 314.58 237.827 336.892 220.362C338.132 220.396 339.379 220.415 340.637 220.415C376.179 220.415 405 206.996 405 190.443C405 184.358 401.102 178.696 394.411 173.97C394.411 159.077 363.797 147.003 326.049 147.003L52.1842 147.003C22.5338 147.003 -1.50211 156.484 -1.50211 168.176C-7.5238 172.737 -11.0001 178.105 -11.0001 183.851Z"
            fill="#6C63FF" />
        <path
            d="M356.335 185.904C356.335 175.081 350.843 166.307 344.068 166.307C339.81 166.307 336.06 169.774 333.86 175.037C333.117 174.728 332.321 174.568 331.516 174.566C329.465 174.566 327.569 175.617 326.023 177.395C324.04 170.834 319.836 166.307 314.97 166.307C310.42 166.307 306.451 170.267 304.334 176.145C303.157 175.152 301.675 174.595 300.135 174.566C294.936 174.566 290.721 181.3 290.721 189.607C290.699 192.376 291.203 195.124 292.204 197.705H353.861C355.414 194.422 356.335 190.336 356.335 185.904Z"
            fill="#6C63FF" />
        <path
            d="M312.356 72.7328C302.696 51.8342 283.79 34.006 260.951 31.1002C254.913 30.3319 248.608 30.6401 243.005 33.0201C235.651 36.1443 230.23 42.4503 224.752 48.2675C213.153 60.5807 200.174 71.5156 186.07 80.8558C179.109 85.4644 171.643 89.7642 163.379 90.9434C146.808 93.3076 130.418 82.0074 122.861 67.0721C118.141 57.7423 115.959 46.7885 112.143 37.0843C107.748 37.0759 102.512 37.0775 96.8784 37.1035C81.3071 37.1752 68.6326 37.4053 68.6326 37.4053C68.6326 37.4053 83.6982 17.4489 96.822 24.8426C101.016 27.2054 105.409 29.3139 109.446 31.0901C107.152 26.6785 104.259 22.709 100.28 19.5175C92.4324 13.2245 81.8042 11.4593 71.7564 11.928C61.2053 12.4201 50.5573 15.245 41.9838 21.4144C26.7106 32.4049 20.4034 51.7501 15.0053 69.7759L28.0533 76.3173C33.6501 71.4785 41.8343 66.692 49.3778 70.9419C62.5015 78.3356 77.5773 83.2447 77.5773 83.2447C77.5773 83.2447 65.0056 83.131 49.4343 83.2028C46.8191 83.2148 44.2886 83.2314 41.8832 83.2506L186.747 155.875C234.528 156.548 270.555 153.964 315.957 155.875C318.325 155.975 323.651 143.562 323.669 140.296C323.794 117.272 322.017 93.6315 312.356 72.7328ZM265.961 78.9966C250.39 79.0684 237.716 79.2984 237.716 79.2984C237.716 79.2984 252.781 59.3421 265.905 66.7358C279.029 74.1295 294.104 79.0386 294.104 79.0386C294.104 79.0386 281.533 78.9249 265.961 78.9966L265.961 78.9966Z"
            fill="#F2F2F2" />
        <path
            d="M300.655 154.986C303.034 149.847 305.411 144.632 306.444 139.064C307.476 133.496 307.043 127.453 304.086 122.624C301.129 117.794 295.306 114.519 289.749 115.611C285.186 116.508 281.521 120.102 279.375 124.229C277.23 128.356 276.369 133.01 275.534 137.586C275.265 132.387 274.979 127.105 273.252 122.195C271.526 117.284 268.125 112.708 263.279 110.808C258.434 108.908 252.13 110.402 249.576 114.938C245.977 121.328 250.748 130.291 246.611 136.345C245.901 130.272 239.55 125.474 233.514 126.45C227.479 127.427 222.965 133.983 224.207 139.97C224.945 143.533 227.376 146.563 230.282 148.752C233.188 150.942 236.568 153.479 239.911 154.914L300.655 154.986Z"
            fill="#AF8EFF" />
        <path
            d="M300.655 154.986C303.034 149.847 305.411 144.632 306.444 139.064C307.476 133.496 307.043 127.453 304.086 122.624C301.129 117.794 295.306 114.519 289.749 115.611C285.186 116.508 281.521 120.102 279.375 124.229C277.23 128.356 276.369 133.01 275.534 137.586C275.265 132.387 274.979 127.105 273.252 122.195C271.526 117.284 268.125 112.708 263.279 110.808C258.434 108.908 252.13 110.402 249.576 114.938C245.977 121.328 250.748 130.291 246.611 136.345C245.901 130.272 239.55 125.474 233.514 126.45C227.479 127.427 222.965 133.983 224.207 139.97C224.945 143.533 227.376 146.563 230.282 148.752C233.188 150.942 236.568 153.479 239.911 154.914L300.655 154.986Z"
            fill="#AF8EFF" />
        <path
            d="M227.376 130.741C232.171 132.417 237.01 134.112 241.387 136.732C245.31 139.08 248.803 142.242 251.01 146.291C252.218 148.463 252.936 150.874 253.112 153.353C253.144 153.872 253.955 153.876 253.923 153.353C253.64 148.736 251.389 144.51 248.273 141.168C244.857 137.504 240.429 135.002 235.858 133.06C233.148 131.909 230.371 130.93 227.592 129.959C227.098 129.787 226.886 130.57 227.376 130.741Z"
            fill="white" />
        <path
            d="M255.031 111.613C257.977 116.521 260.336 121.757 262.06 127.215C263.787 132.672 264.874 138.31 265.301 144.017C265.538 147.211 265.563 150.418 265.379 153.616C265.348 154.138 266.16 154.136 266.19 153.616C266.517 147.85 266.168 142.066 265.15 136.381C264.133 130.697 262.463 125.149 260.171 119.849C258.885 116.872 257.402 113.984 255.732 111.204C255.676 111.115 255.587 111.051 255.485 111.026C255.383 111.001 255.275 111.017 255.184 111.07C255.093 111.123 255.026 111.21 254.998 111.311C254.969 111.412 254.981 111.521 255.031 111.613Z"
            fill="white" />
        <path
            d="M294.73 116.273C290.563 125.634 287.631 135.498 286.007 145.616C285.551 148.457 285.198 151.313 284.948 154.183C284.903 154.703 285.714 154.7 285.759 154.183C286.643 144.088 288.824 134.149 292.251 124.612C293.214 121.931 294.273 119.288 295.43 116.682C295.64 116.209 294.942 115.796 294.73 116.273Z"
            fill="white" />
        <path
            d="M272.655 249.988C275.034 244.849 277.411 239.634 278.444 234.066C279.476 228.498 279.043 222.455 276.086 217.626C273.129 212.797 267.306 209.522 261.749 210.613C257.186 211.51 253.521 215.105 251.375 219.231C249.23 223.358 248.369 228.012 247.534 232.588C247.265 227.389 246.979 222.108 245.252 217.197C243.526 212.287 240.125 207.711 235.279 205.81C230.434 203.91 224.13 205.405 221.576 209.94C217.977 216.33 222.748 225.293 218.611 231.347C217.901 225.274 211.55 220.476 205.514 221.452C199.479 222.429 194.965 228.985 196.207 234.973C196.945 238.535 199.376 241.565 202.282 243.755C205.188 245.944 208.568 248.481 211.911 249.916L272.655 249.988Z"
            fill="#AF8EFF" />
        <path
            d="M272.655 249.988C275.034 244.849 277.411 239.634 278.444 234.066C279.476 228.498 279.043 222.455 276.086 217.626C273.129 212.797 267.306 209.522 261.749 210.613C257.186 211.51 253.521 215.105 251.375 219.231C249.23 223.358 248.369 228.012 247.534 232.588C247.265 227.389 246.979 222.108 245.252 217.197C243.526 212.287 240.125 207.711 235.279 205.81C230.434 203.91 224.13 205.405 221.576 209.94C217.977 216.33 222.748 225.293 218.611 231.347C217.901 225.274 211.55 220.476 205.514 221.452C199.479 222.429 194.965 228.985 196.207 234.973C196.945 238.535 199.376 241.565 202.282 243.755C205.188 245.944 208.568 248.481 211.911 249.916L272.655 249.988Z"
            fill="#AF8EFF" />
        <path
            d="M199.376 225.743C204.171 227.419 209.01 229.114 213.387 231.734C217.31 234.082 220.803 237.244 223.01 241.293C224.218 243.465 224.936 245.876 225.112 248.356C225.144 248.874 225.955 248.878 225.923 248.356C225.64 243.738 223.389 239.512 220.273 236.17C216.857 232.506 212.429 230.004 207.858 228.062C205.148 226.911 202.371 225.932 199.592 224.961C199.098 224.789 198.886 225.572 199.376 225.743Z"
            fill="white" />
        <path
            d="M227.031 206.615C229.977 211.523 232.336 216.76 234.06 222.218C235.787 227.674 236.874 233.312 237.301 239.019C237.538 242.214 237.563 245.42 237.379 248.618C237.348 249.14 238.16 249.138 238.19 248.618C238.517 242.852 238.168 237.068 237.15 231.383C236.133 225.699 234.463 220.151 232.171 214.851C230.885 211.874 229.402 208.986 227.732 206.206C227.676 206.117 227.587 206.053 227.485 206.028C227.383 206.003 227.275 206.019 227.184 206.072C227.093 206.125 227.026 206.212 226.998 206.313C226.969 206.414 226.981 206.523 227.031 206.615Z"
            fill="white" />
        <path
            d="M266.73 211.275C262.563 220.636 259.631 230.5 258.007 240.618C257.551 243.46 257.198 246.315 256.948 249.185C256.903 249.705 257.714 249.702 257.759 249.185C258.643 239.09 260.824 229.151 264.251 219.615C265.214 216.933 266.273 214.29 267.43 211.684C267.64 211.211 266.942 210.798 266.73 211.275Z"
            fill="white" />
        <path
            d="M30.07 250.031C24.5442 248.592 19.6612 245.34 16.2039 240.796C12.7466 236.252 10.9151 230.678 11.0031 224.969C11.025 223.547 11.1745 222.094 11.7725 220.804C12.3705 219.513 13.4812 218.396 14.8706 218.09C16.3869 217.756 17.9869 218.439 19.1169 219.504C20.2469 220.568 20.9879 221.973 21.6696 223.368C25.7755 231.77 28.8951 240.786 30.0631 250.064L30.07 250.031Z"
            fill="#AF8EFF" />
        <path
            d="M14.1832 218.371L17.0608 224.909L19.9385 231.447C20.8499 233.518 21.7595 235.59 22.7015 237.647C23.6353 239.686 24.601 241.711 25.6312 243.703C26.66 245.692 27.7534 247.649 28.9402 249.549C29.088 249.785 29.2373 250.021 29.388 250.255C29.4922 250.418 29.753 250.267 29.6479 250.104C28.4383 248.218 27.3238 246.273 26.2784 244.292C25.2319 242.309 24.2538 240.29 23.3119 238.256C22.3649 236.21 21.4543 234.148 20.5462 232.085C19.5902 229.914 18.6345 227.742 17.6789 225.571L14.8012 219.032L14.4431 218.219C14.3652 218.042 14.1057 218.195 14.1831 218.371L14.1832 218.371Z"
            fill="white" />
        <path
            d="M28.87 250.077C25.6129 250.822 22.1998 250.451 19.1781 249.026C16.1563 247.6 13.7008 245.2 12.2052 242.212C11.8325 241.468 11.5181 240.674 11.4801 239.842C11.442 239.01 11.7173 238.131 12.3561 237.597C13.0532 237.014 14.0681 236.937 14.9422 237.184C15.8164 237.432 16.5803 237.961 17.3108 238.502C21.7108 241.755 25.7643 245.594 28.8756 250.096L28.87 250.077Z"
            fill="#AF8EFF" />
        <path
            d="M12.074 237.928L15.3331 240.546L18.5923 243.164C19.6245 243.993 20.656 244.823 21.7004 245.636C22.7356 246.443 23.7836 247.233 24.8563 247.99C25.9275 248.745 27.0234 249.465 28.1525 250.131C28.293 250.214 28.4341 250.296 28.5758 250.377C28.6738 250.434 28.7684 250.285 28.6697 250.228C27.5327 249.576 26.429 248.867 25.3514 248.121C24.2728 247.374 23.22 246.59 22.1817 245.788C21.1378 244.981 20.1084 244.157 19.08 243.331C17.9975 242.461 16.915 241.592 15.8327 240.723L12.5735 238.105L12.1679 237.779C12.0797 237.708 11.9863 237.858 12.074 237.928H12.074Z"
            fill="white" />
        <path d="M270.614 149.026H252.187V151.162H270.614V149.026Z" fill="#2F2E41" />
        <path
            d="M270.612 156.504C271.497 156.504 272.214 153.634 272.214 150.094C272.214 146.555 271.497 143.685 270.612 143.685C269.727 143.685 269.01 146.555 269.01 150.094C269.01 153.634 269.727 156.504 270.612 156.504Z"
            fill="#2F2E41" />
        <path
            d="M252.187 156.504C253.072 156.504 253.789 153.634 253.789 150.094C253.789 146.555 253.072 143.685 252.187 143.685C251.302 143.685 250.584 146.555 250.584 150.094C250.584 153.634 251.302 156.504 252.187 156.504Z"
            fill="#2F2E41" />
        <path opacity="0.85"
            d="M58.212 147.294C58.212 139.424 53.3395 133.045 47.329 133.045C43.5512 133.045 40.224 135.566 38.2726 139.392C37.6025 139.166 36.9001 139.051 36.1928 139.05C34.3638 139.081 32.6176 139.818 31.3197 141.107C29.5606 136.336 25.8306 133.045 21.5133 133.045C17.4767 133.045 13.956 135.924 12.0772 140.198C10.9751 139.459 9.67972 139.059 8.35241 139.05C3.73968 139.05 0.000295246 143.946 0.000295246 149.986C-0.0132098 152.023 0.436757 154.037 1.31616 155.874H56.0172C57.484 153.254 58.2406 150.297 58.212 147.294Z"
            fill="#6C63FF" />
        <path opacity="0.24"
            d="M99.4501 216.916C110.744 216.916 119.9 215.369 119.9 213.461C119.9 211.552 110.744 210.005 99.4501 210.005C88.1558 210.005 79 211.552 79 213.461C79 215.369 88.1558 216.916 99.4501 216.916Z"
            fill="#6C63FF" />
        <path opacity="0.1"
            d="M294.135 224.063C300.285 224.063 305.271 223.221 305.271 222.183C305.271 221.144 300.285 220.303 294.135 220.303C287.985 220.303 283 221.144 283 222.183C283 223.221 287.985 224.063 294.135 224.063Z"
            fill="#6C63FF" />
        <path
            d="M286.662 213.438C286.662 213.438 293.011 213.239 294.924 211.875C296.838 210.512 304.696 208.89 305.166 211.074C305.636 213.259 314.713 221.945 307.543 222.004C300.373 222.064 290.88 220.886 288.973 219.72C287.066 218.555 286.662 213.438 286.662 213.438Z"
            fill="#A8A8A8" />
        <path opacity="0.1"
            d="M332.567 160.827C337.298 160.827 341.133 160.178 341.133 159.377C341.133 158.577 337.298 157.928 332.567 157.928C327.835 157.928 324 158.577 324 159.377C324 160.178 327.835 160.827 332.567 160.827Z"
            fill="#6C63FF" />
        <path
            d="M326.811 152.645C326.811 152.645 331.697 152.492 333.173 151.446C334.649 150.4 340.687 149.143 341.051 150.824C341.415 152.506 348.4 159.192 342.878 159.232C337.357 159.272 330.062 158.378 328.592 157.477C327.122 156.577 326.811 152.645 326.811 152.645Z"
            fill="#A8A8A8" />
        <path opacity="0.2"
            d="M213.45 192.916C224.744 192.916 233.9 191.369 233.9 189.46C233.9 187.552 224.744 186.004 213.45 186.004C202.156 186.004 193 187.552 193 189.46C193 191.369 202.156 192.916 213.45 192.916Z"
            fill="#6C63FF" />
        <path opacity="0.19"
            d="M1.43051e-05 220.005C9 224.005 14.5 221.938 14.5 220.005C14.5 218.072 7.73201 213.005 1.43051e-05 213.005C-7.73198 213.005 -14 214.572 -14 216.505C-14 218.438 -14 218.505 1.43051e-05 220.005Z"
            fill="#6C63FF" />
        <path opacity="0.19"
            d="M346.316 245.163C361.947 252.111 371.5 248.521 371.5 245.163C371.5 241.806 359.745 233.005 346.316 233.005C332.887 233.005 322 235.727 322 239.084C322 242.442 322 242.558 346.316 245.163Z"
            fill="#6C63FF" />
        <path d="M223.872 34.983H204.761V58.8141H223.872V34.983Z" fill="#2F2E41" />
        <path d="M188.981 146.147L186.375 155.737L190.719 158.934L191.877 158.062L193.904 148.181L188.981 146.147Z"
            fill="#90ACFF" />
        <path d="M221.7 145.276L220.832 156.9H226.333V146.147L221.7 145.276Z" fill="#90ACFF" />
        <path d="M204.327 71.7472V78.7222L215.041 80.4658L224.306 76.6879L222.569 72.3283L204.327 71.7472Z"
            fill="#90ACFF" />
        <path
            d="M213.014 77.5595L203.748 75.8158L201.432 94.7063L195.641 118.247C195.641 118.247 186.954 138.3 188.112 142.95L188.691 144.403L188.112 147.018L193.903 149.343L196.22 145.565C196.22 145.565 197.957 148.181 200.852 142.659C203.748 137.137 215.909 102.844 215.909 102.844L217.936 108.656C217.412 110.449 217.313 112.34 217.646 114.178C218.226 117.084 218.805 126.094 218.805 126.094C218.805 126.094 215.62 141.787 219.963 142.95L220.831 146.437L226.912 147.018L228.07 143.531C228.07 143.531 233.861 141.497 232.414 131.325C230.966 121.153 230.387 87.7313 230.387 87.7313L224.682 73.6145L213.014 77.5595Z"
            fill="#2F2E41" />
        <path
            d="M188.112 155.155C188.112 155.155 186.665 153.993 186.085 154.283C185.506 154.574 179.426 162.421 179.426 162.421C179.426 162.421 173.056 167.361 177.688 167.943C182.321 168.524 195.061 162.13 195.061 160.677C195.061 159.224 192.384 155.585 192.384 155.585C192.384 155.585 190.429 157.19 188.112 155.155Z"
            fill="#2F2E41" />
        <path
            d="M220.252 154.284C220.252 154.284 225.464 153.959 226.333 154.848C227.201 155.737 226.912 160.097 226.912 160.097C226.912 160.097 227.491 167.943 222.858 167.943C218.225 167.943 219.383 162.712 219.383 162.712L220.252 154.284Z"
            fill="#2F2E41" />
        <path
            d="M215.04 46.1719C219.038 46.1719 222.279 42.919 222.279 38.9063C222.279 34.8937 219.038 31.6407 215.04 31.6407C211.042 31.6407 207.801 34.8937 207.801 38.9063C207.801 42.919 211.042 46.1719 215.04 46.1719Z"
            fill="#90ACFF" />
        <path
            d="M210.263 43.4116C210.263 43.4116 214.317 48.3522 206.21 52.1303C198.102 55.9084 212.001 71.6021 212.001 71.6021C212.001 71.6021 228.216 65.499 226.768 53.5834C226.768 53.5834 216.923 51.8397 219.24 43.7022L210.263 43.4116Z"
            fill="#90ACFF" />
        <path
            d="M205.92 51.8392C205.92 51.8392 199.261 50.9673 198.971 56.4891C198.681 62.011 198.971 75.3796 198.971 75.3796C198.971 75.3796 196.075 87.0046 197.523 97.1764C197.523 97.1764 195.786 109.092 200.419 108.511C205.052 107.929 201.577 96.3045 201.577 96.3045L203.604 77.414L202.735 63.4641L206.499 55.036L205.92 51.8392Z"
            fill="#90ACFF" />
        <path
            d="M225.086 53.1231C225.086 53.1231 231.4 53.0017 231.69 57.6516C231.979 62.3016 229.663 76.5421 229.663 76.5421L226.188 78.2859L223.003 68.4047L225.086 53.1231Z"
            fill="#90ACFF" />
        <path
            d="M226.912 76.9778L226.333 78.4309L228.07 82.7903C228.07 82.7903 221.121 88.3121 221.7 89.4746C222.279 90.6371 225.465 88.0215 225.465 88.0215L230.097 90.3465C230.097 90.3465 233.861 86.2778 232.124 82.4997C231.162 80.4686 230.357 78.3666 229.716 76.2123C229.716 76.2123 227.202 76.106 226.912 76.9778Z"
            fill="#90ACFF" />
        <path
            d="M204.617 50.8224L203.748 60.4129C203.748 60.4129 199.694 64.4817 204.327 70.0035L203.748 74.3629C203.748 74.3629 214.461 73.7816 216.488 74.3629C218.515 74.9441 224.775 73.8949 224.775 73.8949L224.885 70.5847C224.885 70.5847 227.781 66.516 226.912 60.4129C226.043 54.3099 226.912 52.2755 226.912 52.2755L224.885 51.9849C224.885 51.9849 223.582 60.8489 214.606 61.7207C214.606 61.7207 203.458 62.7379 206.643 50.8224L204.617 50.8224Z"
            fill="#6C63FF" />
        <path
            d="M215.765 27.1366C215.765 27.1366 208.236 26.6682 206.499 31.367C204.762 36.0658 201.722 38.5326 201.722 38.5326C201.722 38.5326 196.932 41.874 199.327 47.8389C199.327 47.8389 191.877 52.8639 196.799 57.3278C196.799 57.3278 196.51 61.7916 199.405 64.8458C199.405 64.8458 201.722 66.0205 200.853 66.7254C199.984 67.4302 206.644 66.9603 206.065 60.6169C205.486 54.2736 209.395 49.8052 209.395 49.8052C209.395 49.8052 205.631 41.5808 207.368 38.7616C208.423 37.0499 208.876 35.7734 209.751 35.0346C210.239 34.6329 210.691 34.1899 211.103 33.7106C211.491 33.2168 212.02 32.8521 212.619 32.6644C213.219 32.4768 213.861 32.4749 214.462 32.6591C217.068 33.364 217.647 35.4784 217.647 35.4784C217.647 35.4784 219.529 40.5296 222.714 42.879C225.899 45.2284 220.253 49.3398 220.253 49.3398C220.253 49.3398 221.234 54.1804 223.784 57.0463C226.333 59.9121 223.049 62.4102 222.859 62.7314C222.424 63.4645 220.69 68.094 227.855 68.1145C227.855 68.1145 229.518 64.6109 231.835 62.4964C234.151 60.382 232.414 54.2736 232.414 54.2736C232.414 54.2736 235.889 52.1591 232.124 46.9904C232.124 46.9904 233.283 42.2917 230.098 39.2375C230.098 39.2374 225.61 25.4921 215.765 27.1366Z"
            fill="#2F2E41" />
        <path
            d="M207.222 39.9239C207.622 39.9239 207.946 39.4034 207.946 38.7614C207.946 38.1193 207.622 37.5989 207.222 37.5989C206.823 37.5989 206.498 38.1193 206.498 38.7614C206.498 39.4034 206.823 39.9239 207.222 39.9239Z"
            fill="#90ACFF" />
        <path d="M137.733 110.964L138.779 112.583L124.811 121.606L123.765 119.986L137.733 110.964Z" fill="#2F2E41" />
        <path
            d="M123.074 121.581C121.341 118.898 120.48 116.372 121.15 115.939C121.821 115.505 123.77 117.329 125.503 120.012C127.236 122.695 128.098 125.222 127.427 125.655C126.756 126.088 124.807 124.265 123.074 121.581Z"
            fill="#2F2E41" />
        <path
            d="M137.042 112.558C135.309 109.875 134.448 107.349 135.119 106.915C135.789 106.482 137.738 108.306 139.471 110.989C141.204 113.672 142.066 116.199 141.395 116.632C140.724 117.065 138.775 115.241 137.042 112.558Z"
            fill="#2F2E41" />
        <path
            d="M127.26 107.656C127.26 107.656 137.998 118.179 133.488 119.468C128.978 120.757 123.824 109.804 123.824 109.804L127.26 107.656Z"
            fill="#8FACFE" />
        <path d="M116.523 143.09L117.812 149.103L108.148 149.533L109.651 143.09H116.523Z" fill="#8FACFE" />
        <path d="M86.0273 180.244L87.3158 186.257L77.6516 186.687L79.1552 180.244H86.0273Z" fill="#8FACFE" />
        <path
            d="M102.993 102.931L102.134 106.367C102.134 106.367 125.972 101.642 124.684 113.669C123.395 125.695 117.811 137.292 117.811 137.292C117.811 137.292 118.241 141.158 117.382 141.802C116.523 142.447 117.382 144.594 117.382 144.594C117.382 144.594 109.436 145.668 109.221 143.735C109.106 142.443 109.178 141.141 109.436 139.87C109.436 139.87 109.006 139.87 109.436 137.722C109.865 135.574 111.6 118.254 112.889 115.892C112.889 115.892 101.49 124.622 95.4763 123.548C95.4763 123.548 96.3353 132.138 92.8992 143.52C89.463 154.903 89.463 156.191 89.463 156.191C89.463 156.191 85.3826 177.882 86.4564 180.459L86.6711 181.533H78.725C78.725 181.533 79.3693 170.151 78.725 168.647C78.0807 167.144 78.0807 154.259 81.7316 147.816C84.3171 143.253 83.8355 130.024 82.4213 124.795C81.2337 120.404 80.9338 117.024 81.6299 112.529C82.3744 107.722 84.5975 105.209 87.3154 102.931H102.993Z"
            fill="#2F2E41" />
        <path
            d="M96.658 70.61C92.388 70.61 88.9265 67.1485 88.9265 62.8786C88.9265 58.6087 92.388 55.1472 96.658 55.1472C100.928 55.1472 104.389 58.6087 104.389 62.8786C104.389 67.1485 100.928 70.61 96.658 70.61Z"
            fill="#8FACFE" />
        <path
            d="M98.6985 68.3529C98.6985 68.3529 96.3361 75.2252 96.5508 76.5138C96.7656 77.8023 89.6785 73.9366 89.6785 73.9366C89.6785 73.9366 92.4704 67.0643 91.6113 65.1315L98.6985 68.3529Z"
            fill="#8FACFE" />
        <path
            d="M90.1073 71.5768L97.6239 74.5834L97.1944 77.1606C97.1944 77.1606 97.8387 78.0196 97.6239 78.4491C97.4092 78.8787 100.416 80.5967 99.9863 81.241C99.5568 81.8853 102.563 84.4624 102.349 85.1067C102.134 85.751 109.221 89.6167 105.355 97.1333C105.355 97.1333 103.351 99.7389 103.602 102.82C103.611 102.928 103.623 103.037 103.637 103.147C104.067 106.368 87.3154 102.717 87.3154 102.717V99.0662C87.3154 99.0662 85.8121 98.4219 86.0269 95.63C86.2416 92.8381 87.5302 94.1267 86.0269 92.6234C84.5235 91.12 84.5235 91.3348 84.7383 90.0462C84.824 89.5317 84.8413 87.6815 84.8311 85.6444C84.8114 81.3404 86.2131 77.1502 88.8187 73.7244L90.1073 71.5768Z"
            fill="#6C63FF" />
        <path
            d="M94.1876 77.1583L108.147 91.762L128.549 107.869L124.039 111.52L86.4563 86.393C86.4563 86.393 83.2349 72.6483 94.1876 77.1583Z"
            fill="#6C63FF" />
        <path
            d="M115.879 146.311C115.879 146.311 117.382 143.734 118.456 144.593L125.973 150.607C125.973 150.607 139.288 154.472 126.402 157.479C126.402 157.479 119.315 158.553 117.812 157.479C116.308 156.405 113.946 156.62 113.302 157.049C112.658 157.479 104.497 156.835 104.497 155.117C104.497 153.398 108.998 145.89 108.998 145.89C108.998 145.89 111.584 148.888 115.879 146.311Z"
            fill="#2F2E41" />
        <path
            d="M85.3823 183.465C85.3823 183.465 86.8856 180.888 87.9594 181.747L95.4761 187.76C95.4761 187.76 108.791 191.626 95.9056 194.633C95.9056 194.633 88.8185 195.707 87.3152 194.633C85.8118 193.559 83.4495 193.774 82.8052 194.203C82.1609 194.633 74 193.988 74 192.27C74 190.552 78.501 183.043 78.501 183.043C78.501 183.043 81.0871 186.042 85.3823 183.465Z"
            fill="#2F2E41" />
        <path
            d="M105.924 59.8116C105.924 59.8116 104.616 48.3205 93.4361 51.5832C93.4361 51.5832 85.5267 49.9744 82.7331 59.8529L79.8976 70.2098L81.1955 69.5353L81.7693 70.8558L83.8406 71.4229L84.7653 69.6721L85.155 71.8273L99.4598 74.7194C99.4598 74.7194 94.6219 69.1919 94.6562 61.0963L96.0811 62.6612L105.924 59.8116Z"
            fill="#2F2E41" />
    </g>
</svg>