<svg width="360" height="250" viewBox="0 0 360 250" fill="none" xmlns="http://www.w3.org/2000/svg">
    <defs>
        <clipPath id="clip0">
            <rect width="360" height="250" fill="white" />
        </clipPath>
    </defs>
    <g clip-path="url(#clip0)">
        <path opacity="0.1"
            d="M-11 183.851C-11 194.047 -0.0692749 203.051 16.6359 208.464C16.4056 209.495 16.2844 210.54 16.2722 211.599C16.2722 228.152 45.0972 241.565 80.6348 241.565C91.9727 241.565 102.623 240.197 111.874 237.8C137.037 245.405 169.884 250.006 205.818 250.006C264.286 250.006 314.58 237.827 336.892 220.362C338.132 220.396 339.379 220.415 340.637 220.415C376.179 220.415 405 206.996 405 190.443C405 184.358 401.102 178.696 394.411 173.97C394.411 159.077 363.797 147.003 326.049 147.003L52.1844 147.003C22.534 147.003 -1.50198 156.484 -1.50198 168.176C-7.52368 172.737 -11 178.105 -11 183.851Z"
            fill="#6C63FF" />
        <path
            d="M356.335 185.904C356.335 175.081 350.843 166.307 344.068 166.307C339.81 166.307 336.06 169.774 333.86 175.037C333.117 174.728 332.321 174.568 331.516 174.566C329.465 174.566 327.569 175.617 326.023 177.395C324.04 170.834 319.836 166.307 314.97 166.307C310.42 166.307 306.451 170.267 304.334 176.145C303.157 175.152 301.675 174.595 300.135 174.566C294.936 174.566 290.721 181.3 290.721 189.607C290.699 192.376 291.203 195.124 292.204 197.705H353.861C355.414 194.422 356.335 190.336 356.335 185.904Z"
            fill="#6C63FF" />
        <path
            d="M312.356 72.7328C302.696 51.8342 283.79 34.006 260.951 31.1002C254.913 30.3319 248.608 30.6401 243.005 33.0201C235.651 36.1443 230.23 42.4503 224.752 48.2675C213.153 60.5807 200.174 71.5156 186.07 80.8558C179.109 85.4644 171.643 89.7642 163.379 90.9434C146.808 93.3076 130.418 82.0074 122.861 67.0721C118.141 57.7423 115.959 46.7885 112.143 37.0843C107.748 37.0759 102.512 37.0775 96.8784 37.1035C81.3071 37.1752 68.6326 37.4053 68.6326 37.4053C68.6326 37.4053 83.6982 17.4489 96.822 24.8426C101.016 27.2054 105.409 29.3139 109.446 31.0901C107.152 26.6785 104.259 22.709 100.28 19.5175C92.4324 13.2245 81.8042 11.4593 71.7564 11.928C61.2053 12.4201 50.5573 15.245 41.9838 21.4144C26.7106 32.4049 20.4034 51.7501 15.0053 69.7759L28.0533 76.3173C33.6501 71.4785 41.8343 66.692 49.3778 70.9419C62.5015 78.3356 77.5773 83.2447 77.5773 83.2447C77.5773 83.2447 65.0056 83.131 49.4343 83.2028C46.8191 83.2148 44.2886 83.2314 41.8832 83.2506L186.747 155.875C234.528 156.548 270.555 153.964 315.957 155.875C318.325 155.975 323.651 143.562 323.669 140.296C323.794 117.272 322.017 93.6315 312.356 72.7328ZM265.961 78.9966C250.39 79.0684 237.716 79.2984 237.716 79.2984C237.716 79.2984 252.781 59.3421 265.905 66.7358C279.029 74.1295 294.104 79.0386 294.104 79.0386C294.104 79.0386 281.533 78.9249 265.961 78.9966L265.961 78.9966Z"
            fill="#F2F2F2" />
        <path
            d="M300.655 154.986C303.034 149.847 305.411 144.632 306.444 139.064C307.476 133.496 307.043 127.453 304.086 122.624C301.129 117.794 295.306 114.519 289.749 115.611C285.186 116.508 281.521 120.102 279.375 124.229C277.23 128.356 276.369 133.01 275.534 137.586C275.265 132.387 274.979 127.105 273.252 122.195C271.526 117.284 268.125 112.708 263.279 110.808C258.434 108.908 252.13 110.402 249.576 114.938C245.977 121.328 250.748 130.291 246.611 136.345C245.901 130.272 239.55 125.474 233.514 126.45C227.479 127.427 222.965 133.983 224.207 139.97C224.945 143.533 227.376 146.563 230.282 148.752C233.188 150.942 236.568 153.479 239.911 154.914L300.655 154.986Z"
            fill="#AF8EFF" />
        <path
            d="M300.655 154.986C303.034 149.847 305.411 144.632 306.444 139.064C307.476 133.496 307.043 127.453 304.086 122.624C301.129 117.794 295.306 114.519 289.749 115.611C285.186 116.508 281.521 120.102 279.375 124.229C277.23 128.356 276.369 133.01 275.534 137.586C275.265 132.387 274.979 127.105 273.252 122.195C271.526 117.284 268.125 112.708 263.279 110.808C258.434 108.908 252.13 110.402 249.576 114.938C245.977 121.328 250.748 130.291 246.611 136.345C245.901 130.272 239.55 125.474 233.514 126.45C227.479 127.427 222.965 133.983 224.207 139.97C224.945 143.533 227.376 146.563 230.282 148.752C233.188 150.942 236.568 153.479 239.911 154.914L300.655 154.986Z"
            fill="#AF8EFF" />
        <path
            d="M227.376 130.741C232.171 132.417 237.01 134.112 241.387 136.732C245.31 139.08 248.803 142.242 251.01 146.291C252.218 148.463 252.936 150.874 253.112 153.353C253.144 153.872 253.955 153.876 253.923 153.353C253.64 148.736 251.389 144.51 248.273 141.168C244.857 137.504 240.429 135.002 235.858 133.06C233.148 131.909 230.371 130.93 227.592 129.959C227.098 129.787 226.886 130.57 227.376 130.741Z"
            fill="white" />
        <path
            d="M255.031 111.613C257.977 116.521 260.336 121.757 262.06 127.215C263.787 132.672 264.874 138.31 265.301 144.017C265.538 147.211 265.563 150.418 265.379 153.616C265.348 154.138 266.16 154.136 266.19 153.616C266.517 147.85 266.168 142.066 265.15 136.381C264.133 130.697 262.463 125.149 260.171 119.849C258.885 116.872 257.402 113.984 255.732 111.204C255.676 111.115 255.587 111.051 255.485 111.026C255.383 111.001 255.275 111.017 255.184 111.07C255.093 111.123 255.026 111.21 254.998 111.311C254.969 111.412 254.981 111.521 255.031 111.613Z"
            fill="white" />
        <path
            d="M294.73 116.273C290.563 125.634 287.631 135.498 286.007 145.616C285.551 148.457 285.198 151.313 284.948 154.183C284.903 154.703 285.714 154.7 285.759 154.183C286.643 144.088 288.824 134.149 292.251 124.612C293.214 121.931 294.273 119.288 295.43 116.682C295.64 116.209 294.942 115.796 294.73 116.273Z"
            fill="white" />
        <path
            d="M272.655 249.988C275.034 244.849 277.411 239.634 278.444 234.066C279.476 228.498 279.043 222.455 276.086 217.626C273.129 212.797 267.306 209.522 261.749 210.613C257.186 211.51 253.521 215.105 251.375 219.231C249.23 223.358 248.369 228.012 247.534 232.588C247.265 227.389 246.979 222.108 245.252 217.197C243.526 212.287 240.125 207.711 235.279 205.81C230.434 203.91 224.13 205.405 221.576 209.94C217.977 216.33 222.748 225.293 218.611 231.347C217.901 225.274 211.55 220.476 205.514 221.452C199.479 222.429 194.965 228.985 196.207 234.973C196.945 238.535 199.376 241.565 202.282 243.755C205.188 245.944 208.568 248.481 211.911 249.916L272.655 249.988Z"
            fill="#AF8EFF" />
        <path
            d="M272.655 249.988C275.034 244.849 277.411 239.634 278.444 234.066C279.476 228.498 279.043 222.455 276.086 217.626C273.129 212.797 267.306 209.522 261.749 210.613C257.186 211.51 253.521 215.105 251.375 219.231C249.23 223.358 248.369 228.012 247.534 232.588C247.265 227.389 246.979 222.108 245.252 217.197C243.526 212.287 240.125 207.711 235.279 205.81C230.434 203.91 224.13 205.405 221.576 209.94C217.977 216.33 222.748 225.293 218.611 231.347C217.901 225.274 211.55 220.476 205.514 221.452C199.479 222.429 194.965 228.985 196.207 234.973C196.945 238.535 199.376 241.565 202.282 243.755C205.188 245.944 208.568 248.481 211.911 249.916L272.655 249.988Z"
            fill="#AF8EFF" />
        <path
            d="M199.376 225.743C204.171 227.419 209.01 229.114 213.387 231.734C217.31 234.082 220.803 237.244 223.01 241.293C224.218 243.465 224.936 245.876 225.112 248.356C225.144 248.874 225.955 248.878 225.923 248.356C225.64 243.738 223.389 239.512 220.273 236.17C216.857 232.506 212.429 230.004 207.858 228.062C205.148 226.911 202.371 225.932 199.592 224.961C199.098 224.789 198.886 225.572 199.376 225.743Z"
            fill="white" />
        <path
            d="M227.031 206.615C229.977 211.523 232.336 216.76 234.06 222.218C235.787 227.674 236.874 233.312 237.301 239.019C237.538 242.214 237.563 245.42 237.379 248.618C237.348 249.14 238.16 249.138 238.19 248.618C238.517 242.852 238.168 237.068 237.15 231.383C236.133 225.699 234.463 220.151 232.171 214.851C230.885 211.874 229.402 208.986 227.732 206.206C227.676 206.117 227.587 206.053 227.485 206.028C227.383 206.003 227.275 206.019 227.184 206.072C227.093 206.125 227.026 206.212 226.998 206.313C226.969 206.414 226.981 206.523 227.031 206.615Z"
            fill="white" />
        <path
            d="M266.73 211.275C262.563 220.636 259.631 230.5 258.007 240.618C257.551 243.46 257.198 246.315 256.948 249.185C256.903 249.705 257.714 249.702 257.759 249.185C258.643 239.09 260.824 229.151 264.251 219.615C265.214 216.933 266.273 214.29 267.43 211.684C267.64 211.211 266.942 210.798 266.73 211.275Z"
            fill="white" />
        <path
            d="M30.0701 250.031C24.5442 248.592 19.6613 245.341 16.2039 240.796C12.7466 236.252 10.9151 230.679 11.0031 224.969C11.025 223.547 11.1746 222.095 11.7725 220.804C12.3705 219.513 13.4812 218.396 14.8706 218.09C16.3869 217.757 17.987 218.439 19.117 219.504C20.247 220.568 20.9879 221.973 21.6696 223.368C25.7755 231.77 28.8952 240.786 30.0631 250.065L30.0701 250.031Z"
            fill="#AF8EFF" />
        <path
            d="M14.1832 218.371L17.0608 224.909L19.9385 231.448C20.8499 233.518 21.7595 235.59 22.7015 237.647C23.6353 239.686 24.601 241.711 25.6312 243.703C26.66 245.692 27.7534 247.649 28.9402 249.549C29.088 249.785 29.2373 250.021 29.388 250.256C29.4922 250.418 29.753 250.267 29.6479 250.104C28.4383 248.218 27.3238 246.273 26.2784 244.292C25.2319 242.309 24.2538 240.291 23.3119 238.256C22.3649 236.21 21.4543 234.148 20.5462 232.085C19.5902 229.914 18.6345 227.742 17.6789 225.571L14.8012 219.033L14.4431 218.219C14.3652 218.042 14.1057 218.195 14.1831 218.371L14.1832 218.371Z"
            fill="white" />
        <path
            d="M28.8701 250.077C25.6129 250.822 22.1999 250.452 19.1781 249.026C16.1564 247.6 13.7009 245.2 12.2052 242.213C11.8326 241.468 11.5182 240.674 11.4801 239.842C11.4421 239.01 11.7174 238.131 12.3561 237.597C13.0533 237.014 14.0682 236.937 14.9423 237.184C15.8164 237.432 16.5803 237.962 17.3109 238.502C21.7109 241.756 25.7644 245.594 28.8757 250.096L28.8701 250.077Z"
            fill="#AF8EFF" />
        <path
            d="M12.074 237.928L15.3332 240.546L18.5923 243.164C19.6245 243.993 20.6561 244.823 21.7004 245.636C22.7357 246.443 23.7837 247.234 24.8564 247.99C25.9275 248.745 27.0235 249.466 28.1525 250.131C28.2931 250.214 28.4342 250.296 28.5758 250.378C28.6739 250.434 28.7685 250.285 28.6698 250.229C27.5327 249.576 26.429 248.867 25.3515 248.121C24.2728 247.374 23.2201 246.59 22.1818 245.788C21.1379 244.982 20.1085 244.157 19.08 243.331C17.9975 242.462 16.9151 241.592 15.8327 240.723L12.5736 238.105L12.168 237.779C12.0798 237.708 11.9864 237.858 12.074 237.928H12.074Z"
            fill="white" />
        <path
            d="M135.476 94.5997C135.476 94.5997 137.591 79.09 141.116 83.3199C144.641 87.5498 141.116 93.8947 141.116 93.8947L138.296 97.4196L135.476 95.3047V94.5997Z"
            fill="#8FACFE" />
        <path
            d="M127.019 99.5347C127.019 99.5347 134.069 91.7798 135.479 93.1898C136.889 94.5998 141.119 95.3047 140.414 98.1247C139.709 100.945 124.904 110.109 124.904 110.109L127.019 99.5347Z"
            fill="#6C63FF" />
        <path opacity="0.1"
            d="M127.019 99.5347C127.019 99.5347 134.069 91.7798 135.479 93.1898C136.889 94.5998 141.119 95.3047 140.414 98.1247C139.709 100.945 124.904 110.109 124.904 110.109L127.019 99.5347Z"
            fill="black" />
        <path
            d="M86.8321 98.8298V104.47C86.8321 104.47 86.1272 117.159 90.3571 116.454C94.587 115.749 92.472 105.175 92.472 105.175L91.767 98.8298H86.8321Z"
            fill="#8FACFE" />
        <path
            d="M88.9497 139.72C88.9497 139.72 82.6048 149.59 80.4899 150.295C78.3749 151 67.0951 157.344 65.6851 163.689L55.8153 176.379L60.7502 182.724C60.7502 182.724 83.3098 158.754 89.6547 156.639C95.9996 154.525 102.344 143.95 102.344 143.95L88.9497 139.72Z"
            fill="#8FACFE" />
        <path
            d="M139.003 123.505C139.003 123.505 152.398 125.62 150.283 134.08C148.168 142.539 127.723 160.164 127.723 160.164L127.018 164.394L119.263 165.804L115.738 162.279L116.443 160.164C116.443 160.164 124.903 152.409 125.608 149.589C126.313 146.769 134.068 135.49 137.593 134.785L132.658 131.965L139.003 123.505Z"
            fill="#8FACFE" />
        <path
            d="M57.9294 176.38C57.9294 176.38 60.7493 172.15 56.5194 172.855C52.2895 173.56 49.4695 174.265 49.4695 177.085C49.4695 179.905 52.9945 199.645 57.2244 198.235C61.4543 196.825 57.9294 190.48 57.9294 190.48C57.9294 190.48 60.0443 184.84 61.4543 184.135C62.8643 183.43 62.8643 179.905 61.4543 179.905C60.0443 179.905 57.2244 177.79 57.9294 176.38Z"
            fill="#2F2E41" />
        <path
            d="M117.855 160.87C117.855 160.87 117.855 157.345 115.035 160.87C112.215 164.395 110.805 167.215 113.625 169.33C116.445 171.445 126.315 176.38 126.315 176.38C126.315 176.38 136.89 178.495 135.48 173.56C135.48 173.56 128.43 170.035 128.43 167.215C128.43 164.395 128.43 159.46 126.315 160.87C124.2 162.28 117.855 162.985 117.855 160.87Z"
            fill="#2F2E41" />
        <path
            d="M104.459 107.995C104.459 107.995 94.5889 109.405 95.2939 123.505C95.2939 123.505 82.6042 136.194 86.1291 140.424C89.654 144.654 97.4088 152.409 100.229 150.294C103.049 148.179 111.509 131.965 111.509 131.965C111.509 131.965 131.248 139.014 134.773 135.489C138.298 131.965 141.823 123.505 141.823 123.505L124.198 114.34L104.459 107.995Z"
            fill="#2F2E41" />
        <path
            d="M131.954 67.8095C136.626 67.8095 140.414 64.0219 140.414 59.3497C140.414 54.6775 136.626 50.8899 131.954 50.8899C127.282 50.8899 123.494 54.6775 123.494 59.3497C123.494 64.0219 127.282 67.8095 131.954 67.8095Z"
            fill="#8FACFE" />
        <path
            d="M125.607 60.0547C125.607 60.0547 120.672 67.8095 119.262 68.5145C117.852 69.2195 129.132 76.2694 129.132 76.2694C129.132 76.2694 129.132 67.1046 132.657 64.9896L125.607 60.0547Z"
            fill="#8FACFE" />
        <path
            d="M124.905 67.81C124.905 67.81 113.626 64.285 111.511 69.925C109.396 75.565 104.461 86.14 105.166 93.19C105.871 100.24 107.281 98.83 105.166 100.945C103.051 103.06 101.641 101.65 102.346 104.47C103.051 107.29 103.756 107.29 103.051 108.7C102.346 110.11 111.511 115.045 119.266 115.75L127.02 116.455C127.02 116.455 127.02 103.765 128.43 100.945C129.84 98.125 132.66 92.485 132.66 90.37V84.7739C132.66 81.0492 131.688 77.389 129.84 74.155C129.84 74.155 125.61 67.81 124.905 67.81Z"
            fill="#6C63FF" />
        <path
            d="M116.446 70.6298C116.446 70.6298 90.3616 72.7447 87.5416 79.7946C84.7217 86.8445 83.3117 100.944 86.1317 100.944C88.9516 100.944 92.4765 102.354 93.1815 100.944C93.8865 99.5342 96.7064 85.4345 97.4114 85.4345C98.1164 85.4345 119.266 83.3195 119.266 83.3195C119.266 83.3195 128.431 72.0397 116.446 70.6298Z"
            fill="#6C63FF" />
        <path
            d="M132.292 57.2523C132.292 57.2523 134.537 53.3509 137.343 56.7396C140.149 60.1283 144.714 53.9009 144.013 52.5722C143.313 51.2434 140.838 52.6319 136.597 51.2455C132.355 49.859 124.186 47.0346 122.817 56.248C121.449 65.4615 124.708 64.4956 124.708 64.4956C124.708 64.4956 126.201 56.3315 127.551 58.6766L128.901 61.0217L130.073 61.3099L132.292 57.2523Z"
            fill="#2F2E41" />
        <path
            d="M212.088 35.6633C217.788 35.6633 222.409 31.0423 222.409 25.3419C222.409 19.6416 217.788 15.0205 212.088 15.0205C206.387 15.0205 201.766 19.6416 201.766 25.3419C201.766 31.0423 206.387 35.6633 212.088 35.6633Z"
            fill="#2F2E41" />
        <path
            d="M208.791 32.9815C208.791 32.9815 209.326 42.5955 208.257 42.5955C207.189 42.5955 214.934 47.1355 214.934 47.1355L219.741 44.4649V41.2603C219.741 41.2603 213.331 40.4591 216.002 33.5156C218.672 26.5721 208.791 32.9815 208.791 32.9815Z"
            fill="#90ACFF" />
        <path d="M186.358 138.472L185.557 146.483L188.228 147.285L190.364 145.148L191.165 138.472H186.358Z"
            fill="#90ACFF" />
        <path d="M224.813 143.012L226.148 148.086L229.887 150.489L233.893 148.353L229.353 140.875L224.813 143.012Z"
            fill="#90ACFF" />
        <path
            d="M211.329 37.1209C215.606 37.1209 219.073 33.6535 219.073 29.3762C219.073 25.099 215.606 21.6316 211.329 21.6316C207.051 21.6316 203.584 25.099 203.584 29.3762C203.584 33.6535 207.051 37.1209 211.329 37.1209Z"
            fill="#90ACFF" />
        <path
            d="M206.655 58.3518L204.786 57.5507C204.786 57.5507 201.581 55.6813 201.314 51.9425C201.047 48.2037 203.984 43.3967 203.984 43.3967L208.257 42.0614L213.278 46.1475L213.331 52.7437L206.655 58.3518Z"
            fill="#90ACFF" />
        <path
            d="M204.787 43.9318L203.718 43.3977C203.718 43.3977 198.377 43.1306 197.843 49.5401C197.309 55.9497 195.44 66.6322 195.44 66.6322C195.44 66.6322 191.167 74.1099 191.434 82.1218L189.297 89.0654C189.297 89.0654 186.36 99.2138 189.831 99.2138C193.303 99.2138 193.036 88.2642 193.036 88.2642C193.036 88.2642 199.446 72.7746 199.98 70.104C200.514 67.4333 205.054 54.8814 203.718 51.4096C202.383 47.9378 204.787 43.9318 204.787 43.9318Z"
            fill="#90ACFF" />
        <path
            d="M208.788 60.7568V63.6945C208.788 63.6945 210.657 65.8309 209.856 67.1662C209.055 68.5015 208.254 71.172 208.254 71.172L211.992 77.0473L224.544 78.1155L227.04 61.3925L208.788 60.7568Z"
            fill="#90ACFF" />
        <path
            d="M220.542 42.0623L222.678 40.994C222.678 40.994 227.218 37.7893 230.957 37.2551L242.44 29.5103L249.918 11.6171C249.918 11.6171 249.651 2.00289 251.787 3.07114C253.924 4.13939 253.657 12.4183 253.657 12.4183C253.657 12.4183 249.651 28.9762 246.179 33.5163C242.707 38.0563 230.156 45.5341 230.156 45.5341C230.156 45.5341 226.684 49.54 226.951 51.4095C227.218 53.2789 220.542 42.0623 220.542 42.0623Z"
            fill="#90ACFF" />
        <path
            d="M210.66 71.1722C210.66 71.1722 207.723 69.3027 205.853 72.5075C203.984 75.7122 200.512 76.5134 198.376 86.1276C196.239 95.7419 191.165 110.964 189.83 112.033C188.495 113.101 182.887 124.318 186.091 140.074H191.432L195.972 117.374C195.972 117.374 210.66 99.2137 211.729 91.7359L216.536 119.777C216.536 119.777 216.803 130.46 220.808 135.534L225.081 145.683L230.69 143.012L224.28 117.374C224.28 117.374 227.485 91.4689 225.348 84.2582L225.041 74.8049C225.041 74.8049 216.269 75.1781 210.66 71.1722Z"
            fill="#2F2E41" />
        <path
            d="M188.228 145.148H185.024C184.489 145.148 180.217 148.62 182.086 150.489C183.955 152.359 186.893 155.831 186.893 155.831C186.893 155.831 197.308 157.155 197.575 155.286C197.842 153.416 193.035 149.421 193.035 149.421L191.7 145.148C191.7 145.148 189.029 142.211 188.228 145.148Z"
            fill="#5F62FD" />
        <path
            d="M230.686 147.819C230.686 147.819 226.146 147.552 225.345 147.285C224.544 147.018 222.942 154.228 225.345 154.763C227.749 155.297 237.63 156.098 237.63 156.098C237.63 156.098 245.374 155.831 244.84 153.694C244.306 151.558 233.891 147.285 233.891 147.285C233.891 147.285 232.556 144.614 230.686 147.819Z"
            fill="#5F62FD" />
        <path
            d="M209.591 41.7943L208.256 40.9932L206.654 42.3284C206.654 42.3284 211.461 45.5331 210.392 48.4707C209.324 51.4083 204.784 57.5506 204.784 57.5506C204.784 57.5506 208.79 62.0906 208.79 63.6929C208.79 63.6929 219.205 59.9541 226.95 63.6929C226.95 63.6929 226.95 58.3518 228.018 57.2836C229.086 56.2154 229.62 52.4766 226.95 49.2719C225.068 46.9138 223.372 44.4139 221.876 41.7944L219.205 40.192L217.83 40.6283C217.83 40.6283 220.54 43.6637 217.87 43.9308C215.199 44.1979 210.926 43.3967 209.591 41.7943Z"
            fill="#6C63FF" />
        <path
            d="M219.631 7.74463C218.724 8.7574 217.481 9.40834 216.132 9.57766C213.799 9.91094 215.632 13.577 215.632 13.577C215.632 13.577 214.965 12.2439 216.298 11.0774C217.632 9.91094 219.631 9.24438 219.631 7.74463Z"
            fill="#2F2E41" />
        <path
            d="M215.135 17.2198C216.724 17.2198 218.011 15.932 218.011 14.3434C218.011 12.7548 216.724 11.4669 215.135 11.4669C213.546 11.4669 212.259 12.7548 212.259 14.3434C212.259 15.932 213.546 17.2198 215.135 17.2198Z"
            fill="#2F2E41" />
        <path
            d="M218.493 17.1758C216.271 16.0151 212.448 15.1022 210.417 15.1675L210.931 13.2031C212.729 14.4248 216.532 15.3547 219.007 15.2115L218.493 17.1758Z"
            fill="#6C63FF" />
        <path
            d="M213.901 17.3489C213.901 17.3489 210.399 21.8511 203.396 22.8516C196.392 23.8521 201.895 34.8575 201.895 34.8575C201.895 34.8575 199.894 30.8556 203.896 27.3538C207.898 23.8521 213.901 21.8511 213.901 17.3489Z"
            fill="#2F2E41" />
        <path
            d="M214.172 17.0817C214.172 17.0817 216.173 24.0852 219.174 25.0856C222.176 26.0861 220.675 36.5914 215.672 37.5919C215.672 37.5919 219.924 31.839 217.423 27.3368C214.922 22.8345 213.421 19.3328 214.172 17.0817Z"
            fill="#2F2E41" />
        <path d="M261.266 5.34119H242.839V7.47764H261.266V5.34119Z" fill="#2F2E41" />
        <path
            d="M261.268 12.8187C262.153 12.8187 262.87 9.94916 262.87 6.40937C262.87 2.86957 262.153 0 261.268 0C260.383 0 259.666 2.86957 259.666 6.40937C259.666 9.94916 260.383 12.8187 261.268 12.8187Z"
            fill="#2F2E41" />
        <path
            d="M242.838 12.8187C243.723 12.8187 244.441 9.94916 244.441 6.40937C244.441 2.86957 243.723 0 242.838 0C241.953 0 241.236 2.86957 241.236 6.40937C241.236 9.94916 241.953 12.8187 242.838 12.8187Z"
            fill="#2F2E41" />
        <path d="M270.614 149.026H252.187V151.162H270.614V149.026Z" fill="#2F2E41" />
        <path
            d="M270.612 156.504C271.497 156.504 272.214 153.634 272.214 150.094C272.214 146.555 271.497 143.685 270.612 143.685C269.727 143.685 269.01 146.555 269.01 150.094C269.01 153.634 269.727 156.504 270.612 156.504Z"
            fill="#2F2E41" />
        <path
            d="M252.187 156.504C253.072 156.504 253.789 153.634 253.789 150.094C253.789 146.555 253.072 143.685 252.187 143.685C251.302 143.685 250.584 146.555 250.584 150.094C250.584 153.634 251.302 156.504 252.187 156.504Z"
            fill="#2F2E41" />
        <path opacity="0.85"
            d="M58.212 147.294C58.212 139.424 53.3395 133.045 47.329 133.045C43.5512 133.045 40.224 135.566 38.2726 139.392C37.6025 139.166 36.9001 139.051 36.1928 139.05C34.3638 139.081 32.6176 139.818 31.3197 141.107C29.5606 136.336 25.8306 133.045 21.5133 133.045C17.4767 133.045 13.956 135.924 12.0772 140.198C10.9751 139.459 9.67972 139.059 8.35241 139.05C3.73968 139.05 0.000295246 143.946 0.000295246 149.986C-0.0132098 152.023 0.436757 154.037 1.31616 155.874H56.0172C57.484 153.254 58.2406 150.297 58.212 147.294Z"
            fill="#6C63FF" />
        <path opacity="0.24"
            d="M99.4501 216.916C110.744 216.916 119.9 215.369 119.9 213.461C119.9 211.552 110.744 210.005 99.4501 210.005C88.1558 210.005 79 211.552 79 213.461C79 215.369 88.1558 216.916 99.4501 216.916Z"
            fill="#6C63FF" />
        <path opacity="0.1"
            d="M294.135 224.063C300.285 224.063 305.271 223.221 305.271 222.183C305.271 221.144 300.285 220.303 294.135 220.303C287.985 220.303 283 221.144 283 222.183C283 223.221 287.985 224.063 294.135 224.063Z"
            fill="#6C63FF" />
        <path
            d="M286.662 213.438C286.662 213.438 293.011 213.239 294.924 211.875C296.838 210.512 304.696 208.89 305.166 211.074C305.636 213.259 314.713 221.945 307.543 222.004C300.373 222.064 290.88 220.886 288.973 219.72C287.066 218.555 286.662 213.438 286.662 213.438Z"
            fill="#A8A8A8" />
        <path opacity="0.1"
            d="M332.567 160.827C337.298 160.827 341.133 160.178 341.133 159.377C341.133 158.577 337.298 157.928 332.567 157.928C327.835 157.928 324 158.577 324 159.377C324 160.178 327.835 160.827 332.567 160.827Z"
            fill="#6C63FF" />
        <path
            d="M326.811 152.645C326.811 152.645 331.697 152.492 333.173 151.446C334.649 150.4 340.687 149.143 341.051 150.824C341.415 152.506 348.4 159.192 342.878 159.232C337.357 159.272 330.062 158.378 328.592 157.477C327.122 156.577 326.811 152.645 326.811 152.645Z"
            fill="#A8A8A8" />
        <path opacity="0.2"
            d="M213.45 192.916C224.744 192.916 233.9 191.369 233.9 189.46C233.9 187.552 224.744 186.004 213.45 186.004C202.156 186.004 193 187.552 193 189.46C193 191.369 202.156 192.916 213.45 192.916Z"
            fill="#6C63FF" />
        <path opacity="0.19"
            d="M1.43051e-05 220.005C9 224.005 14.5 221.938 14.5 220.005C14.5 218.072 7.73201 213.005 1.43051e-05 213.005C-7.73198 213.005 -14 214.572 -14 216.505C-14 218.438 -14 218.505 1.43051e-05 220.005Z"
            fill="#6C63FF" />
        <path opacity="0.19"
            d="M346.316 245.163C361.947 252.111 371.5 248.521 371.5 245.163C371.5 241.806 359.745 233.005 346.316 233.005C332.887 233.005 322 235.727 322 239.084C322 242.442 322 242.558 346.316 245.163Z"
            fill="#6C63FF" />
    </g>
</svg>