<svg width="183" height="195" viewBox="0 0 183 195" fill="none" xmlns="http://www.w3.org/2000/svg">
<path d="M83.6887 194.345C129.909 194.345 167.377 156.876 167.377 110.656C167.377 64.436 129.909 26.9673 83.6887 26.9673C37.4687 26.9673 0 64.436 0 110.656C0 156.876 37.4687 194.345 83.6887 194.345Z" fill="#756DCF"/>
<path d="M25.3398 131.222L33.971 131.449L34.1983 126.451L35.6184 126.809L37.1532 125.574L36.7288 124.423L38.346 123.872L37.7908 122.846L40.5626 122.552V120.468C41.6971 118.346 45.7864 120.318 45.7864 120.318C50.3283 121.681 44.6519 113.277 44.6519 113.277C44.6519 113.277 42.9462 109.257 43.0749 107.255C43.0749 107.255 40.9026 90.56 65.7783 70.1175L71.5673 61.2591C71.5673 61.2591 74.9727 54.7862 74.9727 48.6532L77.3624 36.3853C77.3624 36.3853 78.3842 21.3939 96.4391 34.0017C96.4391 34.0017 110.065 43.2001 110.407 49.3331C110.407 49.3331 111.087 51.7187 113.132 51.7187L117.22 56.8298H129.487C129.487 56.8298 141.753 57.5137 145.501 69.0957L149.248 93.2876C149.248 93.2876 154.017 98.0588 149.248 100.782L149.59 103.85C149.59 103.85 155.721 104.53 149.248 106.915L149.93 111.483L156.405 118.841C156.405 118.841 168.669 129.405 148.908 125.998L132.553 115.776C132.553 115.776 127.1 113.732 130.849 109.303C130.849 109.303 134.255 106.917 131.871 104.192C131.871 104.192 128.806 103.508 130.849 98.7386C130.849 98.7386 127.444 97.7168 127.784 90.902L126.762 83.7452C126.762 83.7452 120.967 82.3834 123.353 74.8887L101.546 77.6143C101.546 77.6143 92.4564 91.5839 83.7146 86.4727C83.7146 86.4727 75.0874 85.5656 74.6308 92.3784C74.6308 92.3784 69.6323 114.869 68.7211 131.222C68.7211 131.222 67.3593 133.267 68.7211 136.22L80.3072 164.612C80.3072 164.612 83.258 169.606 87.8019 168.47C87.8019 168.47 98.0262 169.381 100.981 173.696H93.0277C93.0277 173.696 90.984 174.38 92.5731 174.832C92.5731 174.832 93.9368 175.512 88.9384 175.967C88.9384 175.967 79.6233 178.24 76.2178 171.198C76.2178 171.198 72.8124 162.566 71.676 164.385L73.7216 180.965C73.7216 180.965 76.2199 185.96 80.7658 185.96C80.7658 185.96 93.7116 186.414 96.8917 190.729C96.8917 190.729 97.5756 191.411 94.3975 190.729L85.535 191.035C85.535 191.035 83.4893 192.089 86.2188 193.002C86.2188 193.002 88.2645 194.368 83.264 193.909L73.4983 192.777C73.4983 192.777 69.2501 192.179 68.2726 188.184C68.2062 187.915 68.1539 187.629 68.1177 187.325C67.5887 182.55 57.5977 162.11 57.5977 162.11L56.0066 150.073C56.0066 150.073 57.5977 145.757 53.5084 148.482C53.5084 148.482 34.6549 159.213 30.113 140.219C30.113 140.219 30.7467 137.242 27.2769 133.813L25.3398 131.222Z" fill="white"/>
<path d="M173.711 60.2146C157.307 30.4074 128.5 10.6026 95.8919 6.40156C94.6916 2.60063 91.0907 0 87.0897 0C82.0885 0 77.8875 4.40107 77.8875 9.80238C77.8875 15.2037 82.0885 19.4047 87.2898 19.4047C91.8909 19.4047 95.6919 16.0039 96.4921 11.4028C126.499 15.6038 153.106 33.8082 168.71 61.0148C165.509 62.6152 163.309 65.816 163.309 69.817C163.309 75.2183 167.51 79.4193 172.711 79.4193C177.912 79.4193 182.113 75.0182 182.113 69.817C181.913 64.8157 178.312 60.6147 173.711 60.2146Z" fill="#756DCF"/>
</svg>
