<svg width="115" height="156" viewBox="0 0 115 156" fill="none" xmlns="http://www.w3.org/2000/svg">
    <defs>
        <linearGradient id="paint0_linear" x1="47.2177" y1="152.902" x2="9.695" y2="12.8649"
            gradientUnits="userSpaceOnUse">
            <stop stop-color="#808080" stop-opacity="0.25" />
            <stop offset="0.54" stop-color="#808080" stop-opacity="0.12" />
            <stop offset="1" stop-color="#808080" stop-opacity="0.1" />
        </linearGradient>
        <clipPath id="clip0">
            <rect width="115" height="156" fill="white" />
        </clipPath>
    </defs>
    <g clip-path="url(#clip0)">
        <path
            d="M57.781 136.451L57.8615 136.751C57.8126 136.721 57.777 136.673 57.7621 136.617C57.7472 136.561 57.7539 136.502 57.781 136.451Z"
            fill="url(#paint0_linear)" />
        <path d="M45.111 42.6483L39.1469 44.2463L40.8276 50.5189L46.7917 48.9209L45.111 42.6483Z" fill="#7165E5" />
        <path
            d="M51.3062 118.615C51.4844 121.378 51.2531 123.624 50.1353 125.211C49.0175 126.798 47.8589 130.56 47.8589 130.56C48.9718 134.853 48.1895 136.458 48.1895 136.458L47.1061 137.079L44.2268 137.851C44.2268 137.851 43.327 136.549 42.9949 135.721C42.8833 135.444 42.9585 134.91 43.1046 134.32C43.6288 132.16 43.7135 129.916 43.3536 127.722L43.1483 126.422C40.8023 118.637 43.2414 115.252 44.3569 114.175C44.5108 114.026 44.6263 113.841 44.6933 113.638C44.7604 113.434 44.7772 113.217 44.7421 113.005V113.005L44.3733 110.699L52.2204 109.004C52.2204 109.004 52.2388 109.731 52.9561 111.232C53.1034 111.543 53.2811 111.885 53.4966 112.262C54.7467 114.46 51.2929 118.433 51.3062 118.615Z"
            fill="#90ACFF" />
        <path
            d="M62.9869 109.675C63.0289 110.894 62.9628 112.115 62.7895 113.323C62.6456 114.4 62.6997 115.494 62.9492 116.551C62.9585 116.586 62.9679 116.621 62.9773 116.656C63.7101 119.791 63.8867 123.031 63.4988 126.228C63.1242 129.379 62.6091 133.487 62.3655 134.388C61.9617 135.891 62.9939 137.966 62.9939 137.966L58.5512 138.826L56.6617 131.47C54.8037 126.354 55.1811 121.066 55.5022 118.637C55.6344 117.664 55.5935 116.676 55.3814 115.718L54.2832 110.797L53.9612 109.34C53.9612 109.34 61.3756 106.179 62.4939 107.752C62.7968 108.167 62.9382 108.868 62.9869 109.675Z"
            fill="#90ACFF" />
        <path opacity="0.1"
            d="M52.956 111.232L44.7338 113.007L44.365 110.701L52.2203 109.004C52.2203 109.004 52.232 109.731 52.956 111.232Z"
            fill="#2F2E41" />
        <path opacity="0.1"
            d="M62.9868 109.675L54.2811 110.797L53.9591 109.341C53.9591 109.341 61.3735 106.179 62.4918 107.753C62.7967 108.167 62.9381 108.868 62.9868 109.675Z"
            fill="#2F2E41" />
        <path
            d="M63.3808 93.4827L63.9718 109.122L53.6741 110.449L52.3147 105.375L52.852 110.819L40.7673 113.431L38.3259 101.852C38.3548 99.4026 38.1784 96.9555 37.7985 94.536C37.3398 91.8947 36.857 85.2064 36.6466 82.0601C36.5883 81.0199 36.537 80.3679 36.537 80.3679C36.537 80.3679 58.1056 79.1426 59.8556 80.3268C60.1545 80.5289 60.4545 81.0481 60.746 81.7657C62.1597 85.2487 63.3808 93.4827 63.3808 93.4827Z"
            fill="#2F2E41" />
        <path opacity="0.1" d="M39.7817 100.836C39.7817 100.836 46.6933 94.4649 48.8918 94.8302L39.7817 100.836Z"
            fill="#2F2E41" />
        <path opacity="0.1" d="M40.4764 85.881C40.4764 85.881 48.5197 89.1636 49.0924 90.4782L40.4764 85.881Z"
            fill="#2F2E41" />
        <path opacity="0.1" d="M43.3444 103.848C43.3444 103.848 48.1223 102.348 49.9953 103.168L43.3444 103.848Z"
            fill="#2F2E41" />
        <path opacity="0.1"
            d="M50.5961 96.0906C50.5961 96.0906 54.908 102.994 54.4637 105.317C54.0193 107.64 52.3131 105.378 52.3131 105.378L50.5961 96.0906Z"
            fill="#2F2E41" />
        <path
            d="M57.8704 136.145C57.8704 136.145 55.7002 137.095 57.5806 142.468C59.4611 147.84 60.336 148.637 61.1768 148.485C62.0176 148.332 66.2947 148.253 65.5468 146.285C64.7989 144.316 63.3908 139.884 63.4803 139.123C63.5697 138.363 63.5584 136.429 62.4023 136.26L62.4613 137.377C62.4613 137.377 59.7247 135.942 58.818 137.765C58.6658 137.421 58.4809 137.092 58.2659 136.782C58.0504 136.496 57.7219 136.406 57.8704 136.145Z"
            fill="#2F2E41" />
        <path
            d="M81.242 57.7648C81.242 57.7648 80.8014 58.1937 80.1375 58.7595C79.1131 59.6336 77.5602 60.8388 76.2938 61.2949C74.2075 62.0479 73.5942 62.4327 70.6847 61.3387C68.4518 60.4998 64.8146 59.4707 63.2353 59.0387L62.5467 58.8463L62.4777 58.8273L62.4711 58.8026L62.7699 55.3853L66.2088 52.1781L67.4329 52.7648L71.077 54.5106C71.077 54.5106 71.7392 55.1311 72.472 54.8797C73.2047 54.6282 77.2776 53.894 77.2776 53.894L78.0634 53.8157L79.7195 53.6541L81.242 57.7648Z"
            fill="#90ACFF" />
        <path opacity="0.1"
            d="M81.242 57.7648C81.242 57.7648 80.8015 58.1936 80.1375 58.7595C79.2232 58.5636 78.017 58.0602 78.0616 56.6883C78.1033 55.4537 77.9593 54.5379 78.0733 53.8196L79.7294 53.658L81.242 57.7648Z"
            fill="#2F2E41" />
        <path
            d="M79.2153 52.3564C79.2153 52.3564 83.344 49.8725 84.4573 55.3603C85.5707 60.8481 81.332 58.8164 81.332 58.8164C81.332 58.8164 78.1947 58.8304 78.2672 56.6332C78.3398 54.436 77.8308 53.252 79.2153 52.3564Z"
            fill="#90ACFF" />
        <path
            d="M28.1553 47.3018L24.0197 50.5084L23.956 50.5585L23.898 50.5476L23.5689 50.4793C22.2028 50.2017 17.5104 49.257 14.5779 48.7356C11.1073 48.1226 11.2007 46.5546 11.2007 46.5546L6.71557 31.5927L5.20011 29.0958C5.20011 29.0958 2.18285 20.0646 6.03105 16.5669C9.87926 13.0693 11.1716 29.4421 11.1716 29.4421L12.3856 32.5907C13.1643 34.6043 14.1229 36.5437 15.2497 38.3853C15.6189 38.991 15.9215 39.635 16.1523 40.3058C16.8775 42.4612 17.8667 42.0396 17.8667 42.0396C19.5592 41.8595 21.2701 41.9722 22.9243 42.3729C23.5361 42.5122 24.1361 42.6994 24.7186 42.9325L28.1553 47.3018Z"
            fill="#90ACFF" />
        <path
            d="M46.6744 50.0544L42.5868 50.7089C42.5868 50.7089 43.2917 48.6508 43.3533 46.8158C43.364 46.5636 43.3589 46.311 43.338 46.0594C43.2771 45.355 43.0792 44.7401 42.6521 44.3718C41.0291 42.9706 48.4745 38.4032 48.4745 38.4032C48.6303 39.3777 48.8563 40.3396 49.1509 41.2814C49.3516 41.938 49.5973 42.5799 49.8862 43.2027C50.4874 44.4678 51.3105 45.5896 52.412 45.9822C55.4202 47.0497 46.6744 50.0544 46.6744 50.0544Z"
            fill="#90ACFF" />
        <path opacity="0.1"
            d="M46.6744 50.0544L42.5868 50.7089C42.5868 50.7089 43.2917 48.6508 43.3533 46.8158C43.9866 47.3448 44.1411 47.288 44.8195 47.2451C44.8195 47.2451 48.9932 46.7638 49.8903 43.2016C50.4916 44.4667 51.3146 45.5885 52.4161 45.9811C55.4203 47.0497 46.6744 50.0544 46.6744 50.0544Z"
            fill="#2F2E41" />
        <path opacity="0.1"
            d="M63.2435 59.0364C63.2716 59.1599 63.3099 59.2809 63.3581 59.3981L62.5488 58.8457L62.4814 58.7998L62.7802 55.3825L66.2191 52.1753L67.4432 52.762C66.164 53.6889 62.6295 56.4897 63.2435 59.0364Z"
            fill="#2F2E41" />
        <path opacity="0.1"
            d="M28.1553 47.3018L24.0197 50.5084L23.8963 50.5415L23.543 50.6626C23.543 50.6626 23.5538 50.5958 23.5672 50.4731C23.7029 49.425 24.2716 44.3329 22.9103 42.37C23.5221 42.5094 24.122 42.6965 24.7046 42.9296L28.1553 47.3018Z"
            fill="#2F2E41" />
        <path opacity="0.1"
            d="M60.7443 81.7594C58.8869 82.083 40.29 85.2674 37.8816 83.0494C37.4974 82.6859 37.0842 82.3543 36.646 82.058C36.5877 81.0178 36.5365 80.3658 36.5365 80.3658C36.5365 80.3658 58.1051 79.1405 59.8551 80.3247C60.1528 80.5226 60.4523 81.0397 60.7443 81.7594Z"
            fill="#2F2E41" />
        <path
            d="M44.8747 47.4507C44.8747 47.4507 49.0932 46.964 49.9636 43.3516C49.9636 43.3516 53.4589 44.9367 55.226 44.6793C56.9931 44.4218 67.6285 52.3023 67.6285 52.3023C67.6285 52.3023 61.8041 56.0671 63.0971 59.2474L59.1433 56.5597C59.1433 56.5597 57.6171 56.8937 57.4362 61.4256C57.4362 61.4256 56.5013 64.2462 58.7459 71.8004C60.9905 79.3547 60.7834 81.3212 60.7834 81.3212C60.7834 81.3212 40.3056 84.9721 37.7713 82.638C35.237 80.3039 35.329 81.7494 35.329 81.7494C35.329 81.7494 33.6207 76.4762 34.3144 71.6614C35.0081 66.8466 31.2722 54.5495 31.2722 54.5495C31.2722 54.5495 29.8429 48.3925 23.9581 50.5579C23.9581 50.5579 24.9139 43.9822 23.1438 42.0319C23.1438 42.0319 26.8656 42.0441 29.3453 41.4106C30.8657 41.0158 32.4553 40.9665 33.9972 41.2662C34.8372 41.4313 35.6449 41.7064 36.1802 42.1493C37.7851 43.4827 39.5042 42.2153 39.5042 42.2153C40.3918 43.5911 41.3829 44.8973 42.4689 46.1225C42.5893 46.2512 42.7092 46.3777 42.8295 46.4976C43.0039 46.6713 43.1824 46.8439 43.3509 46.9795C44.0335 47.5526 44.1684 47.4966 44.8747 47.4507Z"
            fill="#7165E5" />
        <path opacity="0.1"
            d="M49.1494 41.2752C49.0139 41.6444 48.8487 42.0019 48.6556 42.3444C48.1706 43.2099 47.5172 43.9696 46.7339 44.5785C45.9506 45.1874 45.0533 45.6332 44.0949 45.8897C43.847 45.9562 43.5959 46.0103 43.3425 46.0516C43.2816 45.3471 43.0838 44.7322 42.6567 44.3639C41.0336 42.9627 48.4791 38.3954 48.4791 38.3954C48.6328 39.3702 48.8568 40.3327 49.1494 41.2752V41.2752Z"
            fill="#2F2E41" />
        <path
            d="M49.3046 36.5652C49.6861 37.9888 49.6368 39.4936 49.163 40.8892C48.6893 42.2849 47.8123 43.5087 46.643 44.4059C45.4737 45.3031 44.0646 45.8335 42.5939 45.9299C41.1232 46.0263 39.657 45.6844 38.3806 44.9475C37.1042 44.2105 36.0749 43.1117 35.4231 41.7898C34.7712 40.4679 34.5259 38.9824 34.7183 37.5212C34.9107 36.0599 35.5321 34.6886 36.5039 33.5804C37.4756 32.4723 38.7542 31.6773 40.1778 31.2958C41.1231 31.0387 42.11 30.9713 43.0815 31.0973C44.053 31.2234 44.9899 31.5405 45.8383 32.0303C46.6867 32.5201 47.4298 33.173 48.0247 33.9513C48.6196 34.7296 49.0546 35.618 49.3046 36.5652V36.5652Z"
            fill="#90ACFF" />
        <path opacity="0.1"
            d="M57.2792 52.0623L58.7178 56.8392C58.7178 56.8392 60.403 54.5317 60.03 52.8682C59.657 51.2047 57.2792 52.0623 57.2792 52.0623Z"
            fill="#2F2E41" />
        <path opacity="0.1"
            d="M41.2245 61.5264C41.2245 61.5264 48.9604 67.7746 52.462 67.6805C55.9636 67.5865 43.133 63.713 41.2245 61.5264Z"
            fill="#2F2E41" />
        <path opacity="0.1" d="M47.4402 60.7273C47.4402 60.7273 51.5473 63.4445 53.9286 63.2826L47.4402 60.7273Z"
            fill="#2F2E41" />
        <path opacity="0.1" d="M38.74 72.6799C38.74 72.6799 46.0138 76.7926 49.3963 76.2543L38.74 72.6799Z"
            fill="#2F2E41" />
        <path opacity="0.1"
            d="M49.3045 36.5651C49.8097 38.4465 49.5552 40.4511 48.5958 42.1466L47.6744 41.8667C47.3263 41.7895 47.0014 41.6311 46.7262 41.4044C46.3481 41.0384 46.2777 40.4709 46.1621 39.9574C45.9171 38.8703 45.309 37.7856 44.2877 37.3385C42.6316 36.6118 40.6074 37.8022 38.9342 37.1021C38.5245 36.9081 38.1428 36.6597 37.7995 36.3636L36.033 34.9699C35.9273 34.888 35.8051 34.8105 35.6718 34.7162C36.4172 33.4499 37.5202 32.4323 38.8423 31.7911C40.1644 31.15 41.6465 30.914 43.1023 31.1128C44.5581 31.3117 45.9227 31.9364 47.0244 32.9086C48.1261 33.8807 48.9159 35.1569 49.2944 36.5766L49.3045 36.5651Z"
            fill="#2F2E41" />
        <path
            d="M35.2994 30.4385C35.8114 29.7745 36.5275 29.3048 37.1545 28.7489C37.7814 28.193 38.2976 27.5609 38.9388 27.0584C39.5801 26.556 40.3686 26.1507 41.1881 26.2067C42.9467 26.3284 44.1583 28.4152 45.9196 28.3665C46.217 28.3573 46.5066 28.2863 46.7999 28.254C47.365 28.2119 47.9325 28.2902 48.4651 28.4838C48.9976 28.6774 49.483 28.9818 49.8891 29.377C50.696 30.1778 51.27 31.1829 51.5499 32.2847C51.7361 32.8879 51.8106 33.5201 51.7698 34.15C51.6402 35.6241 50.6587 36.8724 50.1413 38.2565C49.6547 39.5786 49.5946 41.0201 49.9694 42.3782L47.6277 41.6676C47.2793 41.5912 46.9542 41.4327 46.6795 41.2053C46.3014 40.8393 46.231 40.2719 46.1154 39.7584C45.8704 38.6712 45.2624 37.5866 44.2431 37.1389C42.5849 36.4128 40.5608 37.6032 38.8896 36.9026C38.4798 36.7085 38.0982 36.4601 37.7549 36.164L35.9884 34.7703C35.6052 34.4674 34.9382 34.1414 34.6913 33.7138C34.1522 32.7958 34.7248 31.1898 35.2994 30.4385Z"
            fill="#2F2E41" />
        <path opacity="0.1"
            d="M47.7896 41.3751C47.4413 41.2987 47.1162 41.1402 46.8414 40.9128C46.4634 40.5468 46.3929 39.9794 46.2773 39.4659C46.0323 38.3787 45.4243 37.2941 44.4029 36.8469C42.7468 36.1202 40.7227 37.3107 39.0494 36.6106C38.6397 36.4166 38.258 36.1682 37.9147 35.872L36.1482 34.4784C35.763 34.176 35.098 33.8494 34.8512 33.4218C34.4143 32.6881 34.7047 31.5015 35.134 30.6767C34.6219 31.4884 34.1955 32.8833 34.6871 33.7061C34.9421 34.1315 35.601 34.4597 35.9841 34.7626L37.7506 36.1563C38.0939 36.4524 38.4756 36.7008 38.8853 36.8948C40.5524 37.5965 42.5765 36.4061 44.2388 37.1312C45.2581 37.5788 45.8662 38.6635 46.1112 39.7507C46.2267 40.2642 46.2972 40.8316 46.6752 41.1976C46.95 41.425 47.2751 41.5835 47.6235 41.6599L49.9652 42.3704C49.9332 42.2511 49.9013 42.1319 49.8822 42.0113L47.7896 41.3751Z"
            fill="#2F2E41" />
        <path
            d="M43.0395 134.596C43.0395 134.596 41.1466 135.544 43.0298 140.927C44.913 146.309 45.7851 147.096 46.6259 146.944C47.4667 146.791 51.7438 146.712 50.9959 144.743C50.248 142.775 48.8399 138.343 48.9294 137.582C49.0189 136.822 49.6104 134.686 48.4543 134.518L47.9105 135.836C47.9105 135.836 45.1738 134.401 44.2671 136.224C44.2671 136.224 42.6887 135.203 43.0395 134.596Z"
            fill="#2F2E41" />
        <path opacity="0.1"
            d="M45.2189 137.662C45.7079 137.751 46.1803 137.894 46.6673 137.983C47.1523 138.092 47.6569 138.077 48.1343 137.939C48.3371 137.88 48.516 137.759 48.6455 137.592"
            fill="#2F2E41" />
        <path opacity="0.1"
            d="M59.8408 139.501C60.1613 139.669 60.4418 139.918 60.7841 140.035C61.2692 140.201 61.8001 140.076 62.3036 139.948C62.3891 139.933 62.4705 139.9 62.5421 139.851C62.6187 139.778 62.6754 139.687 62.7071 139.586L62.8833 139.166"
            fill="#2F2E41" />
        <path
            d="M78.478 25.5628C79.4295 24.9112 78.6779 23.4361 77.5915 23.823V23.823C77.0577 24.0131 76.4721 23.708 76.314 23.1638V23.1638C75.983 22.0246 74.2941 22.2097 74.2783 23.3959L74.2756 23.5999C74.2683 24.1553 73.8199 24.6037 73.2646 24.6112L72.9919 24.6149C71.8427 24.6304 71.6419 26.2642 72.7531 26.5574V26.5574C73.3229 26.7078 73.635 27.3205 73.4218 27.8698V27.8698C73.0059 28.9412 74.4457 29.7391 75.1337 28.8185L75.297 28.6C75.6295 28.1551 76.2558 28.056 76.7094 28.3765L76.8761 28.4942C77.845 29.1787 78.9874 27.9211 78.2603 26.9837V26.9837C77.913 26.536 78.0104 25.8829 78.478 25.5628V25.5628Z"
            fill="#C4C4C4" />
        <path
            d="M103.783 69.6355C104.645 68.9584 103.946 67.5876 102.892 67.8871L102.6 67.9699C102.099 68.1122 101.573 67.8463 101.391 67.3588L101.21 66.8764C100.836 65.8787 99.3693 66.0794 99.2772 67.1408L99.2162 67.8444C99.174 68.3307 98.7868 68.7155 98.3003 68.7547L97.7274 68.8009C96.6456 68.8881 96.4579 70.3943 97.4852 70.7443L97.7399 70.831C98.2523 71.0056 98.5327 71.556 98.3728 72.0731L98.2933 72.3302C97.9726 73.367 99.3014 74.1005 100.008 73.2765L100.382 72.8402C100.7 72.4696 101.239 72.3826 101.657 72.6343L102.262 72.9985C103.175 73.5479 104.199 72.4791 103.612 71.5903L103.328 71.1606C103.041 70.7262 103.135 70.1443 103.544 69.8227L103.783 69.6355Z"
            fill="#97AEFC" />
        <path
            d="M87.6482 86.1437C88.4087 85.4591 87.772 84.2096 86.7712 84.4224L85.1408 84.7691C84.6853 84.866 84.2231 84.6355 84.0264 84.2133L83.2988 82.652C82.8828 81.7593 81.5629 81.9421 81.4053 82.9143L81.0954 84.8259C81.0257 85.2554 80.6864 85.5906 80.2561 85.6549L78.3765 85.9358C77.3782 86.0851 77.2046 87.4514 78.134 87.8455L79.5695 88.4542C80.0165 88.6438 80.2628 89.1271 80.1534 89.6002L79.8021 91.1193C79.5746 92.1028 80.782 92.7655 81.4896 92.0455L82.8217 90.6901C83.1266 90.3798 83.5972 90.3023 83.9856 90.4984L85.7143 91.3712C86.5935 91.8151 87.5172 90.8548 87.0395 89.9935L86.204 88.4872C85.9781 88.0799 86.0633 87.5705 86.4095 87.2589L87.6482 86.1437Z"
            fill="#7EE4FA" />
    </g>

</svg>