<svg width="145" height="192" viewBox="0 0 145 192" fill="none" xmlns="http://www.w3.org/2000/svg">
    <defs>
        <linearGradient id="paint0_linear" x1="67.1415" y1="152.806" x2="29.6188" y2="12.7696"
            gradientUnits="userSpaceOnUse">
            <stop stop-color="#808080" stop-opacity="0.25" />
            <stop offset="0.54" stop-color="#808080" stop-opacity="0.12" />
            <stop offset="1" stop-color="#808080" stop-opacity="0.1" />
        </linearGradient>
        <clipPath id="clip0">
            <rect width="145" height="191.489" rx="20" fill="white" />
        </clipPath>
    </defs>
    <g clip-path="url(#clip0)">
        <path
            d="M-10.2843 65.9906C-0.809086 80.0381 12.6453 90.5646 27.119 95.2542C41.5927 99.9439 55.9001 98.4126 66.8938 90.9972C77.8875 83.5819 84.667 70.8899 85.7408 55.7133C86.8145 40.5368 82.0947 24.1188 72.6195 10.0713L31.1676 38.0309L-10.2843 65.9906Z"
            fill="#A499FF" />
        <rect x="111.764" y="51.4019" width="34" height="34" transform="rotate(-67 111.764 51.4019)" fill="#A499FF" />
        <path opacity="0.97"
            d="M141.346 192.188C141.346 181.822 137.816 171.881 131.534 164.552C125.251 157.222 116.73 153.104 107.846 153.104C98.961 153.104 90.4401 157.222 84.1576 164.552C77.8752 171.881 74.3457 181.822 74.3457 192.188L107.846 192.188H141.346Z"
            fill="#A59AFF" />
        <path
            d="M77.7049 136.356L77.7853 136.656C77.7364 136.626 77.7009 136.578 77.6859 136.522C77.671 136.466 77.6778 136.407 77.7049 136.356Z"
            fill="url(#paint0_linear)" />
        <path d="M65.0348 42.5529L59.0707 44.151L60.7514 50.4236L66.7155 48.8255L65.0348 42.5529Z" fill="#7165E5" />
        <path
            d="M71.2301 118.52C71.4082 121.282 71.1769 123.529 70.0592 125.116C68.9414 126.702 67.7827 130.465 67.7827 130.465C68.8956 134.758 68.1133 136.363 68.1133 136.363L67.0299 136.984L64.1507 137.755C64.1507 137.755 63.2508 136.453 62.9187 135.625C62.8072 135.349 62.8824 134.815 63.0284 134.225C63.5526 132.065 63.6373 129.821 63.2774 127.627L63.0722 126.326C60.7261 118.541 63.1652 115.157 64.2807 114.08C64.4347 113.93 64.5501 113.746 64.6172 113.542C64.6843 113.338 64.701 113.121 64.666 112.91L64.2972 110.604L72.1442 108.909C72.1442 108.909 72.1626 109.636 72.8799 111.137C73.0272 111.448 73.2049 111.79 73.4204 112.167C74.6706 114.364 71.2167 118.338 71.2301 118.52Z"
            fill="#90ACFF" />
        <path
            d="M82.9107 109.579C82.9527 110.799 82.8867 112.02 82.7133 113.227C82.5694 114.304 82.6235 115.398 82.873 116.456C82.8824 116.491 82.8917 116.526 82.9011 116.561C83.634 119.696 83.8105 122.936 83.4226 126.133C83.048 129.284 82.533 133.392 82.2894 134.292C81.8855 135.796 82.9177 137.871 82.9177 137.871L78.4751 138.731L76.5855 131.375C74.7275 126.258 75.1049 120.971 75.4261 118.541C75.5583 117.569 75.5173 116.581 75.3052 115.622L74.207 110.701L73.885 109.245C73.885 109.245 81.2994 106.083 82.4177 107.657C82.7206 108.072 82.862 108.772 82.9107 109.579Z"
            fill="#90ACFF" />
        <path opacity="0.1"
            d="M72.8799 111.136L64.6577 112.912L64.2889 110.606L72.1441 108.909C72.1441 108.909 72.1558 109.635 72.8799 111.136Z"
            fill="#2F2E41" />
        <path opacity="0.1"
            d="M82.9107 109.579L74.205 110.702L73.883 109.245C73.883 109.245 81.2973 106.084 82.4156 107.658C82.7206 108.072 82.862 108.773 82.9107 109.579Z"
            fill="#2F2E41" />
        <path
            d="M83.3046 93.3874L83.8956 109.027L73.598 110.353L72.2385 105.28L72.7758 110.723L60.6911 113.336L58.2497 101.756C58.2786 99.3072 58.1022 96.8601 57.7223 94.4406C57.2636 91.7994 56.7808 85.1111 56.5704 81.9647C56.5121 80.9245 56.4608 80.2726 56.4608 80.2726C56.4608 80.2726 78.0294 79.0472 79.7795 80.2315C80.0783 80.4336 80.3783 80.9527 80.6698 81.6704C82.0836 85.1533 83.3046 93.3874 83.3046 93.3874Z"
            fill="#2F2E41" />
        <path opacity="0.1" d="M59.7056 100.74C59.7056 100.74 66.6171 94.3695 68.8157 94.7349L59.7056 100.74Z"
            fill="#2F2E41" />
        <path opacity="0.1" d="M60.4002 85.7856C60.4002 85.7856 68.4436 89.0683 69.0162 90.3828L60.4002 85.7856Z"
            fill="#2F2E41" />
        <path opacity="0.1" d="M63.2682 103.753C63.2682 103.753 68.0461 102.252 69.9192 103.073L63.2682 103.753Z"
            fill="#2F2E41" />
        <path opacity="0.1"
            d="M70.52 95.9952C70.52 95.9952 74.8318 102.899 74.3875 105.222C73.9432 107.545 72.2369 105.282 72.2369 105.282L70.52 95.9952Z"
            fill="#2F2E41" />
        <path
            d="M77.7943 136.05C77.7943 136.05 75.624 137 77.5045 142.372C79.3849 147.745 80.2598 148.542 81.1006 148.39C81.9414 148.237 86.2185 148.158 85.4706 146.189C84.7227 144.221 83.3146 139.788 83.4041 139.028C83.4936 138.268 83.4822 136.333 82.3261 136.165L82.3852 137.282C82.3852 137.282 79.6486 135.846 78.7418 137.67C78.5896 137.325 78.4047 136.996 78.1897 136.687C77.9742 136.401 77.6458 136.31 77.7943 136.05Z"
            fill="#2F2E41" />
        <path
            d="M101.166 57.6695C101.166 57.6695 100.725 58.0983 100.061 58.6642C99.0369 59.5382 97.484 60.7434 96.2176 61.1996C94.1314 61.9526 93.5181 62.3373 90.6085 61.2433C88.3757 60.4045 84.7385 59.3754 83.1591 58.9434L82.4705 58.7509L82.4015 58.7319L82.3949 58.7073L82.6938 55.29L86.1327 52.0827L87.3567 52.6695L91.0008 54.4153C91.0008 54.4153 91.663 55.0358 92.3958 54.7844C93.1286 54.5329 97.2014 53.7987 97.2014 53.7987L97.9872 53.7204L99.6434 53.5588L101.166 57.6695Z"
            fill="#90ACFF" />
        <path opacity="0.1"
            d="M101.166 57.6694C101.166 57.6694 100.725 58.0983 100.061 58.6641C99.147 58.4683 97.9408 57.9649 97.9854 56.5929C98.0271 55.3584 97.8832 54.4425 97.9971 53.7243L99.6532 53.5627L101.166 57.6694Z"
            fill="#2F2E41" />
        <path
            d="M99.1391 52.2611C99.1391 52.2611 103.268 49.7772 104.381 55.265C105.495 60.7527 101.256 58.721 101.256 58.721C101.256 58.721 98.1185 58.7351 98.1911 56.5378C98.2636 54.3406 97.7546 53.1567 99.1391 52.2611Z"
            fill="#90ACFF" />
        <path
            d="M48.0792 47.2065L43.9436 50.413L43.8798 50.4632L43.8218 50.4523L43.4927 50.3839C42.1266 50.1063 37.4342 49.1617 34.5017 48.6403C31.0311 48.0273 31.1245 46.4593 31.1245 46.4593L26.6394 31.4974L25.1239 29.0005C25.1239 29.0005 22.1067 19.9692 25.9549 16.4716C29.8031 12.9739 31.0954 29.3468 31.0954 29.3468L32.3094 32.4954C33.0881 34.509 34.0467 36.4484 35.1736 38.2899C35.5427 38.8957 35.8453 39.5396 36.0761 40.2104C36.8013 42.3658 37.7905 41.9443 37.7905 41.9443C39.483 41.7641 41.1939 41.8769 42.8481 42.2775C43.46 42.4169 44.0599 42.604 44.6425 42.8372L48.0792 47.2065Z"
            fill="#90ACFF" />
        <path
            d="M66.5982 49.9591L62.5106 50.6135C62.5106 50.6135 63.2156 48.5554 63.2771 46.7204C63.2878 46.4682 63.2827 46.2156 63.2618 45.9641C63.2009 45.2596 63.0031 44.6447 62.576 44.2765C60.9529 42.8752 68.3984 38.3079 68.3984 38.3079C68.5541 39.2823 68.7802 40.2443 69.0748 41.1861C69.2755 41.8426 69.5211 42.4846 69.81 43.1074C70.4113 44.3724 71.2343 45.4943 72.3358 45.8869C75.3441 46.9544 66.5982 49.9591 66.5982 49.9591Z"
            fill="#90ACFF" />
        <path opacity="0.1"
            d="M66.5982 49.9591L62.5106 50.6135C62.5106 50.6135 63.2156 48.5555 63.2771 46.7205C63.9104 47.2495 64.0649 47.1927 64.7434 47.1498C64.7434 47.1498 68.9171 46.6684 69.8141 43.1063C70.4154 44.3713 71.2384 45.4932 72.3399 45.8858C75.3441 46.9544 66.5982 49.9591 66.5982 49.9591Z"
            fill="#2F2E41" />
        <path opacity="0.1"
            d="M83.1673 58.9411C83.1954 59.0646 83.2337 59.1856 83.2819 59.3027L82.4726 58.7503L82.4052 58.7044L82.704 55.2872L86.1429 52.0799L87.367 52.6667C86.0878 53.5936 82.5533 56.3944 83.1673 58.9411Z"
            fill="#2F2E41" />
        <path opacity="0.1"
            d="M48.0791 47.2065L43.9435 50.4131L43.8201 50.4461L43.4668 50.5672C43.4668 50.5672 43.4776 50.5004 43.491 50.3778C43.6268 49.3297 44.1955 44.2376 42.8341 42.2747C43.4459 42.414 44.0458 42.6012 44.6284 42.8343L48.0791 47.2065Z"
            fill="#2F2E41" />
        <path opacity="0.1"
            d="M80.6682 81.6641C78.8107 81.9877 60.2138 85.172 57.8054 82.9541C57.4212 82.5905 57.008 82.2589 56.5699 81.9626C56.5116 80.9224 56.4603 80.2705 56.4603 80.2705C56.4603 80.2705 78.0289 79.0451 79.779 80.2294C80.0767 80.4273 80.3761 80.9444 80.6682 81.6641Z"
            fill="#2F2E41" />
        <path
            d="M64.7985 47.3553C64.7985 47.3553 69.0171 46.8686 69.8875 43.2563C69.8875 43.2563 73.3827 44.8414 75.1498 44.5839C76.917 44.3264 87.5523 52.2069 87.5523 52.2069C87.5523 52.2069 81.728 55.9718 83.021 59.1521L79.0672 56.4643C79.0672 56.4643 77.541 56.7983 77.36 61.3302C77.36 61.3302 76.4251 64.1509 78.6697 71.7051C80.9143 79.2593 80.7072 81.2259 80.7072 81.2259C80.7072 81.2259 60.2295 84.8768 57.6952 82.5426C55.1609 80.2085 55.2528 81.6541 55.2528 81.6541C55.2528 81.6541 53.5445 76.3808 54.2382 71.5661C54.9319 66.7513 51.196 54.4541 51.196 54.4541C51.196 54.4541 49.7667 48.2972 43.8819 50.4625C43.8819 50.4625 44.8378 43.8869 43.0676 41.9365C43.0676 41.9365 46.7894 41.9488 49.2691 41.3152C50.7896 40.9205 52.3791 40.8711 53.9211 41.1709C54.761 41.3359 55.5688 41.611 56.104 42.0539C57.7089 43.3873 59.4281 42.1199 59.4281 42.1199C60.3156 43.4957 61.3067 44.8019 62.3927 46.0272C62.5131 46.1558 62.633 46.2824 62.7533 46.4023C62.9277 46.576 63.1062 46.7486 63.2748 46.8841C63.9574 47.4573 64.0922 47.4013 64.7985 47.3553Z"
            fill="#7165E5" />
        <path opacity="0.1"
            d="M69.0732 41.1799C68.9377 41.549 68.7725 41.9066 68.5794 42.249C68.0944 43.1146 67.4411 43.8742 66.6578 44.4831C65.8745 45.092 64.9771 45.5379 64.0187 45.7943C63.7708 45.8609 63.5197 45.9149 63.2664 45.9562C63.2054 45.2518 63.0076 44.6369 62.5805 44.2686C60.9575 42.8674 68.4029 38.3 68.4029 38.3C68.5566 39.2749 68.7806 40.2374 69.0732 41.1799Z"
            fill="#2F2E41" />
        <path
            d="M69.2284 36.4698C69.6099 37.8935 69.5606 39.3982 69.0869 40.7939C68.6131 42.1895 67.7361 43.4133 66.5668 44.3106C65.3975 45.2078 63.9885 45.7381 62.5177 45.8345C61.047 45.9309 59.5808 45.589 58.3044 44.8521C57.028 44.1152 55.9988 43.0163 55.3469 41.6945C54.695 40.3726 54.4498 38.8871 54.6421 37.4259C54.8345 35.9646 55.4559 34.5932 56.4277 33.4851C57.3995 32.377 58.678 31.582 60.1016 31.2005C61.047 30.9434 62.0338 30.8759 63.0053 31.002C63.9768 31.1281 64.9137 31.4451 65.7621 31.9349C66.6105 32.4248 67.3536 33.0776 67.9485 33.856C68.5434 34.6343 68.9784 35.5226 69.2284 36.4698Z"
            fill="#90ACFF" />
        <path opacity="0.1"
            d="M77.203 51.967L78.6417 56.7439C78.6417 56.7439 80.3269 54.4363 79.9539 52.7729C79.5809 51.1094 77.203 51.967 77.203 51.967Z"
            fill="#2F2E41" />
        <path opacity="0.1"
            d="M61.1484 61.431C61.1484 61.431 68.8842 67.6792 72.3858 67.5852C75.8874 67.4912 63.0568 63.6177 61.1484 61.431Z"
            fill="#2F2E41" />
        <path opacity="0.1" d="M67.364 60.632C67.364 60.632 71.4712 63.3492 73.8524 63.1873L67.364 60.632Z"
            fill="#2F2E41" />
        <path opacity="0.1" d="M58.6638 72.5846C58.6638 72.5846 65.9376 76.6972 69.3202 76.159L58.6638 72.5846Z"
            fill="#2F2E41" />
        <path opacity="0.1"
            d="M69.2284 36.4698C69.7335 38.3512 69.479 40.3558 68.5197 42.0512L67.5983 41.7713C67.2501 41.6941 66.9252 41.5357 66.65 41.309C66.272 40.943 66.2015 40.3756 66.086 39.8621C65.8409 38.7749 65.2329 37.6903 64.2116 37.2431C62.5554 36.5164 60.5313 37.7069 58.858 37.0068C58.4483 36.8128 58.0666 36.5644 57.7233 36.2682L55.9568 34.8746C55.8511 34.7927 55.729 34.7152 55.5957 34.6209C56.341 33.3546 57.4441 32.3369 58.7661 31.6958C60.0882 31.0547 61.5703 30.8187 63.0261 31.0175C64.4819 31.2163 65.8465 31.8411 66.9482 32.8132C68.05 33.7854 68.8397 35.0616 69.2182 36.4813L69.2284 36.4698Z"
            fill="#2F2E41" />
        <path
            d="M55.2232 30.3431C55.7352 29.6791 56.4514 29.2095 57.0783 28.6536C57.7052 28.0976 58.2214 27.4656 58.8626 26.9631C59.5039 26.4607 60.2924 26.0554 61.112 26.1113C62.8705 26.2331 64.0821 28.3199 65.8435 28.2711C66.1408 28.262 66.4304 28.191 66.7237 28.1587C67.2888 28.1166 67.8564 28.1949 68.3889 28.3885C68.9215 28.582 69.4069 28.8865 69.813 29.2817C70.6198 30.0825 71.1939 31.0875 71.4738 32.1893C71.6599 32.7926 71.7344 33.4247 71.6937 34.0547C71.564 35.5288 70.5826 36.7771 70.0651 38.1611C69.5785 39.4833 69.5184 40.9247 69.8933 42.2828L67.5515 41.5723C67.2032 41.4959 66.8781 41.3374 66.6033 41.11C66.2253 40.744 66.1548 40.1766 66.0392 39.6631C65.7942 38.5759 65.1862 37.4912 64.1669 37.0436C62.5087 36.3174 60.4846 37.5078 58.8134 36.8072C58.4037 36.6132 58.022 36.3648 57.6787 36.0687L55.9122 34.675C55.529 34.3721 54.862 34.046 54.6151 33.6184C54.076 32.7005 54.6486 31.0944 55.2232 30.3431Z"
            fill="#2F2E41" />
        <path opacity="0.1"
            d="M67.7135 41.2798C67.3651 41.2034 67.04 41.0449 66.7652 40.8175C66.3872 40.4515 66.3167 39.884 66.2012 39.3706C65.9562 38.2834 65.3481 37.1987 64.3268 36.7516C62.6706 36.0249 60.6465 37.2153 58.9733 36.5153C58.5635 36.3213 58.1818 36.0728 57.8386 35.7767L56.0721 34.383C55.6868 34.0807 55.0218 33.7541 54.775 33.3265C54.3381 32.5927 54.6286 31.4062 55.0578 30.5814C54.5457 31.3931 54.1193 32.788 54.6109 33.6107C54.866 34.0361 55.5248 34.3644 55.9079 34.6673L57.6745 36.0609C58.0177 36.3571 58.3994 36.6055 58.8092 36.7995C60.4762 37.5012 62.5004 36.3108 64.1627 37.0358C65.1819 37.4835 65.79 38.5682 66.035 39.6553C66.1506 40.1688 66.221 40.7363 66.5991 41.1023C66.8738 41.3297 67.1989 41.4882 67.5473 41.5646L69.889 42.2751C69.8571 42.1558 69.8251 42.0365 69.806 41.916L67.7135 41.2798Z"
            fill="#2F2E41" />
        <path
            d="M62.9633 134.5C62.9633 134.5 61.0704 135.448 62.9536 140.831C64.8368 146.214 65.7089 147.001 66.5497 146.848C67.3906 146.696 71.6676 146.617 70.9197 144.648C70.1718 142.68 68.7637 138.247 68.8532 137.487C68.9427 136.727 69.5343 134.591 68.3782 134.423L67.8343 135.741C67.8343 135.741 65.0977 134.305 64.191 136.129C64.191 136.129 62.6125 135.108 62.9633 134.5Z"
            fill="#2F2E41" />
        <path opacity="0.1"
            d="M65.1427 137.567C65.6317 137.656 66.1041 137.798 66.5911 137.888C67.0761 137.997 67.5807 137.981 68.0581 137.843C68.2609 137.785 68.4398 137.664 68.5693 137.497"
            fill="#2F2E41" />
        <path opacity="0.1"
            d="M79.7646 139.406C80.0851 139.574 80.3656 139.822 80.7079 139.94C81.1931 140.105 81.724 139.981 82.2274 139.852C82.313 139.838 82.3943 139.805 82.4659 139.756C82.5425 139.683 82.5993 139.592 82.6309 139.491L82.8072 139.071"
            fill="#2F2E41" />
        <path
            d="M98.4019 25.4678C99.3535 24.8163 98.6019 23.3411 97.5155 23.728C96.9816 23.9181 96.396 23.613 96.2379 23.0689C95.907 21.9297 94.218 22.1147 94.2023 23.3009L94.1996 23.505C94.1922 24.0603 93.7439 24.5087 93.1885 24.5162L92.9158 24.5199C91.7667 24.5354 91.5659 26.1692 92.6771 26.4625C93.2468 26.6129 93.559 27.2255 93.3458 27.7749C92.9299 28.8462 94.3697 29.6441 95.0577 28.7235L95.2209 28.505C95.5534 28.0602 96.1797 27.961 96.6333 28.2815L96.8 28.3993C97.769 29.0837 98.9114 27.8261 98.1843 26.8888C97.837 26.441 97.9343 25.7879 98.4019 25.4678Z"
            fill="#C4C4C4" />
        <path
            d="M123.707 69.5406C124.569 68.8635 123.87 67.4927 122.816 67.7922L122.524 67.875C122.023 68.0172 121.497 67.7514 121.315 67.2638L121.134 66.7814C120.76 65.7837 119.293 65.9844 119.201 67.0458L119.14 67.7494C119.098 68.2358 118.711 68.6206 118.224 68.6598L117.651 68.7059C116.57 68.7931 116.382 70.2993 117.409 70.6493L117.664 70.7361C118.176 70.9106 118.457 71.4611 118.297 71.9781L118.217 72.2352C117.897 73.272 119.225 74.0055 119.932 73.1816L120.306 72.7452C120.624 72.3746 121.162 72.2876 121.581 72.5393L122.186 72.9035C123.099 73.4529 124.123 72.3841 123.536 71.4953L123.252 71.0656C122.965 70.6313 123.059 70.0493 123.468 69.7277L123.707 69.5406Z"
            fill="#97AEFC" />
        <path
            d="M107.572 86.0488C108.333 85.3642 107.696 84.1146 106.695 84.3274L105.065 84.6741C104.609 84.771 104.147 84.5405 103.95 84.1184L103.223 82.557C102.807 81.6643 101.487 81.8472 101.329 82.8193L101.019 84.731C100.95 85.1604 100.61 85.4956 100.18 85.5599L98.3005 85.8409C97.3021 85.9901 97.1285 87.3564 98.0579 87.7505L99.4934 88.3592C99.9404 88.5488 100.187 89.0321 100.077 89.5052L99.726 91.0243C99.4985 92.0078 100.706 92.6706 101.414 91.9506L102.746 90.5951C103.051 90.2848 103.521 90.2073 103.91 90.4034L105.638 91.2763C106.517 91.7202 107.441 90.7598 106.963 89.8986L106.128 88.3922C105.902 87.9849 105.987 87.4756 106.333 87.164L107.572 86.0488Z"
            fill="#7EE4FA" />
    </g>
</svg>