<svg width="94" height="143" viewBox="0 0 94 143" fill="none" xmlns="http://www.w3.org/2000/svg">
<path d="M78.7867 1H15.2133C7.3635 1 1 7.3635 1 15.2133V127.857C1 135.707 7.3635 142.07 15.2133 142.07H78.7867C86.6365 142.07 93 135.707 93 127.857V15.2133C93 7.3635 86.6365 1 78.7867 1Z" fill="black" stroke="black" stroke-miterlimit="10"/>
<path d="M82.2878 16.8398H11.7056V119.915H82.2878V16.8398Z" fill="white" stroke="black" stroke-miterlimit="10"/>
<path d="M47.0046 136.615C49.7457 136.615 51.9678 134.393 51.9678 131.652C51.9678 128.911 49.7457 126.689 47.0046 126.689C44.2636 126.689 42.0415 128.911 42.0415 131.652C42.0415 134.393 44.2636 136.615 47.0046 136.615Z" fill="white" stroke="black" stroke-miterlimit="10"/>
<path d="M66.7805 50H27.2198C26.5929 50.0035 25.9749 50.1481 25.4116 50.4231L46.9061 71.9177L51.7242 67.2866L68.5888 50.4231C68.0255 50.148 67.4074 50.0033 66.7805 50Z" fill="#7165E3"/>
<path d="M70.5782 52.4155L54.7083 68.2819L70.5782 84.1506C70.8529 83.5876 70.9971 82.9699 71.0001 82.3435V54.2179C70.996 53.5931 70.8518 52.9772 70.5782 52.4155Z" fill="#7165E3"/>
<path d="M23.422 52.4155C23.1474 52.9786 23.0032 53.5962 23 54.2226V82.3388C23.0032 82.9652 23.1474 83.5829 23.422 84.1459L39.2918 68.2761L23.422 52.4155Z" fill="#7165E3"/>
<path d="M52.7188 70.2704L47.9006 74.9015C47.7703 75.0323 47.6155 75.136 47.445 75.2068C47.2745 75.2776 47.0917 75.314 46.9071 75.314C46.7225 75.314 46.5397 75.2776 46.3692 75.2068C46.1987 75.136 46.0438 75.0323 45.9135 74.9015L41.2824 70.2704L25.4125 86.1391C25.9758 86.4143 26.5939 86.5589 27.2208 86.5622H66.7827C67.4095 86.5592 68.0275 86.4149 68.5909 86.1403L52.7188 70.2704Z" fill="#7165E3"/>
</svg>
