<svg width="94" height="143" viewBox="0 0 94 143" fill="none" xmlns="http://www.w3.org/2000/svg">
<path d="M78.7867 1H15.2133C7.3635 1 1 7.3635 1 15.2133V127.857C1 135.707 7.3635 142.07 15.2133 142.07H78.7867C86.6365 142.07 93 135.707 93 127.857V15.2133C93 7.3635 86.6365 1 78.7867 1Z" fill="black" stroke="black" stroke-miterlimit="10"/>
<path d="M82.2877 16.8397H11.7055V119.915H82.2877V16.8397Z" fill="white" stroke="black" stroke-miterlimit="10"/>
<path d="M47.0047 136.615C49.7457 136.615 51.9678 134.393 51.9678 131.652C51.9678 128.911 49.7457 126.689 47.0047 126.689C44.2636 126.689 42.0415 128.911 42.0415 131.652C42.0415 134.393 44.2636 136.615 47.0047 136.615Z" fill="white" stroke="black" stroke-miterlimit="10"/>
<path d="M40.293 77.5574V87.0255C40.2929 87.348 40.3948 87.6623 40.584 87.9235C40.7732 88.1847 41.0401 88.3794 41.3466 88.4799C41.653 88.5804 41.9834 88.5816 42.2906 88.4831C42.5977 88.3847 42.8659 88.1918 43.0569 87.9319L48.5958 80.3956L40.293 77.5574Z" fill="#7165E3"/>
<path d="M70.3478 42.2836C70.1179 42.1199 69.8474 42.023 69.5659 42.0035C69.2844 41.9841 69.003 42.0429 68.7529 42.1734L22.8228 66.1582C22.5572 66.2969 22.3381 66.5104 22.1926 66.7724C22.0471 67.0343 21.9816 67.3332 22.0042 67.632C22.0269 67.9308 22.1367 68.2164 22.3201 68.4534C22.5034 68.6904 22.7523 68.8684 23.0358 68.9654L35.804 73.3329L62.996 50.0825L41.9547 75.4331L63.3563 82.7441C63.5159 82.7977 63.6832 82.8253 63.8516 82.8258C64.2184 82.8257 64.5729 82.6941 64.8508 82.4548C65.1287 82.2155 65.3116 81.8845 65.3661 81.5219L70.9793 43.7535C71.0194 43.4741 70.9817 43.1891 70.8703 42.9298C70.7589 42.6704 70.578 42.4468 70.3478 42.2836Z" fill="#7165E3"/>
</svg>
