<svg width="27" height="36" viewBox="0 0 27 36" fill="none" xmlns="http://www.w3.org/2000/svg">
<path d="M13.8731 4.39466C13.692 2.71991 14.4816 0.989485 15.8372 0C15.6216 1.33839 15.7314 2.69795 16.2755 3.94775C16.7648 5.4751 16.8118 7.4078 15.5722 8.60036C15.435 8.78383 15.2907 8.58154 15.2162 8.45609C14.429 7.24629 14.0158 5.82243 13.8731 4.39466Z" fill="#66DEEE"/>
<path d="M7.27216 5.88121C8.08759 3.87558 9.94346 2.42193 11.9804 1.80017C11.0843 3.57999 11.0302 5.71577 11.7162 7.57478C12.5191 9.83993 14.1782 11.6597 15.9423 13.2333C18.3102 15.4452 19.8759 18.8017 19.0441 22.0642C21.0301 18.2153 20.1472 13.4278 17.7088 9.98341C20.8364 12.2901 23.3054 15.7298 23.8778 19.6321C24.3074 22.41 23.5375 25.2044 22.3293 27.6891C24.4486 26.1327 25.2264 23.4402 26.1555 21.1006C26.2143 24.1867 25.616 27.3488 24.0707 30.0467C22.3763 33.0952 19.1836 35.2012 15.7479 35.6904C17.9926 35.0734 18.9907 32.5769 18.8245 30.4325C18.6489 28.5406 17.5065 26.8164 15.9948 25.7109C17.0196 27.3253 17.4406 29.4509 16.5578 31.2197C16.9106 29.5316 16.005 27.8827 14.7349 26.8282C13.3392 25.6223 12.3403 23.6112 13.1659 21.8008C11.4912 22.2328 10.2743 24.1639 10.9463 25.834C11.6104 27.0399 12.3223 28.3892 12.0534 29.8123C11.6449 28.8252 10.6303 28.3634 9.88465 27.6797C9.24094 27.0109 9.33816 25.9955 9.6267 25.1879C8.50235 25.9798 8.15188 27.7832 9.1249 28.8314C9.98031 29.8154 10.4429 31.462 9.44166 32.5103C8.8544 33.0364 9.0214 33.9576 9.4887 34.5049C10.301 35.4983 11.6276 35.8849 12.8649 35.9554C10.1653 36.1836 7.33959 35.5305 5.00701 34.1278C2.1248 32.3997 0.515128 28.8903 0.875796 25.5823C1.09612 23.9326 2.01739 22.3888 1.82608 20.6898C1.6873 19.5019 0.839729 18.59 0 17.817C1.41837 18.2317 2.73167 19.1546 3.45849 20.4608C4.18532 21.7561 4.18061 23.3156 3.86777 24.7308C5.76598 22.94 5.3716 19.8759 4.00263 17.8828C3.62314 17.2101 3.0743 16.6566 2.66737 16.0034C1.35486 13.7351 2.24477 10.5409 4.3633 9.08958C3.69057 10.791 3.54317 12.9817 4.90508 14.393C6.44184 15.8858 8.85596 16.8087 9.42206 19.0652C10.1418 16.2567 8.79638 13.4098 7.42505 11.0121C6.54063 9.46044 6.60179 7.50029 7.27216 5.88121Z" fill="#66DEEE"/>
<path d="M18.7531 5.34265C20.2804 6.52815 20.5212 8.93914 19.1953 10.3653C18.3822 9.79141 17.8546 8.60748 18.3078 7.64779C18.6261 6.92489 18.815 6.13612 18.7531 5.34265Z" fill="#66DEEE"/>
</svg>
