<svg width="27" height="36" viewBox="0 0 27 36" fill="none" xmlns="http://www.w3.org/2000/svg">
<path d="M17.7488 6.69767C19.5907 6.69767 21.0977 5.1907 21.0977 3.34884C21.0977 1.50698 19.5907 0 17.7488 0C15.907 0 14.4 1.50698 14.4 3.34884C14.4 5.1907 15.907 6.69767 17.7488 6.69767ZM11.7209 29.9721L13.3953 22.6047L16.9116 25.9535V36H20.2605V23.4419L16.7442 20.093L17.7488 15.0698C19.9256 17.5814 23.2744 19.2558 26.9581 19.2558V15.907C23.7767 15.907 21.0977 14.2326 19.7581 11.8884L18.0837 9.2093C17.414 8.20465 16.4093 7.53488 15.2372 7.53488C14.7349 7.53488 14.4 7.70233 13.8977 7.70233L5.1907 11.386V19.2558H8.53953V13.5628L11.5535 12.3907L8.87442 25.9535L0.669767 24.2791L0 27.6279L11.7209 29.9721Z" fill="#8980F6"/>
</svg>
